<?xml version="1.0" encoding="UTF-8" standalone="no"?>
<svg aria-hidden="true" class="svg-pusher-logo" width="130" height="50" role="img" version="1.1" viewBox="0 0 120 37">
  <path d="M23.4196429,3.26418269 C19.8125,1.53870192 16.1607143,3.63774038 14.2410714,6.06586538 C13.0714286,7.64903846 12.4196429,10.3084135 12.5089286,14.0884615 C12.2767857,19.4961538 14.7053571,27.4742788 14.7053571,27.4742788 L19.6696429,26.1668269 L16.9553571,33.0242788 L18.1696429,33.8603365 L22.7589286,22.7603365 L18.5446429,23.9254808 C18.5446429,23.9254808 16.3482143,19.1670673 17.1875,12.7365385 C17.5625,8.44951923 19.7589286,6.02139423 21.9196429,6.43942308 C24.1160714,7.08870192 25.0535714,10.7264423 23.0892857,13.4836538 C21.125,16.2319712 17.9375,17.4949519 17.9375,17.4949519 L18.125,19.1759615 C18.125,19.1759615 27.9553571,15.9117788 27.3035714,7.98701923 C27.0714286,6.15480769 25.7142857,4.29591346 23.4196429,3.26418269 L23.4196429,3.26418269 Z M7.97321429,29.1997596 C7.97321429,29.1997596 5.21428571,21.8353365 5.02678571,14.6932692 C4.83928571,12.4074519 4.69642857,5.0875 7.50892857,3.82451923 C8.02678571,2.98846154 8.82142857,2.37475962 8.82142857,2.37475962 C8.82142857,2.37475962 1.70535714,1.81442308 2.08035714,14.8266827 C2.78571429,23.5430288 4.51785714,27.5543269 4.51785714,27.5543269 L0.0714285714,28.7639423 L7.27678571,34.3584135 L7.79464286,33.1487981 L3.91071429,30.3026442 L7.97321429,29.1997596 L7.97321429,29.1997596 Z M14.0982143,28.4971154 C10.4017857,15.7694712 11.1964286,9.33004808 12.9732143,5.50552885 C14.9821429,1.21850962 17.8392857,2.38365385 17.8392857,2.38365385 C17.8392857,2.38365385 18.9642857,1.92115385 20.2232143,1.92115385 C20.3125,1.503125 15.2589286,-2.13461538 10.0178571,2.01009615 C1.63392857,9.28557692 9.08035714,29.7600962 9.08035714,29.7600962 L5.75892857,30.6495192 L14.1875,36.9466346 L18.3571429,27.2963942 L14.0982143,28.4971154 L14.0982143,28.4971154 Z M17.9910714,12.3629808 L17.8035714,13.9995192 C17.8035714,13.9995192 22.4375,11.6247596 21.4553571,7.09759615 C20.9375,7.14206731 19.8125,7.746875 19.6339286,7.93365385 C20.0446429,11.0555288 17.9910714,12.3629808 17.9910714,12.3629808 L17.9910714,12.3629808 Z M116.4375,20.2432697 C118.875,19.407212 119.991072,17.3971158 119.991072,14.8800485 C119.991072,13.2435101 119.473214,11.6158659 118.258929,10.4507216 C116.946429,9.14326969 115.026786,8.91201969 113.294643,8.91201969 L107.491072,8.91201969 L107.491072,27.5632216 L110.205357,27.5632216 L110.205357,18.9358178 L110.25,18.9358178 L116.428572,27.5632216 L119.848214,27.5632216 L114.607143,20.6168274 C115.223214,20.6168274 115.875,20.4745197 116.4375,20.2432697 L116.4375,20.2432697 Z M110.214286,18.5622601 L110.214286,11.429087 L113.116072,11.429087 C115.267857,11.429087 117.285714,12.5497601 117.285714,14.9245197 C117.285714,17.9129812 114.571429,18.5622601 112.133929,18.5622601 L110.214286,18.5622601 L110.214286,18.5622601 Z M94.0625001,27.5632216 L104.125,27.5632216 L104.125,25.0461543 L96.7767859,25.0461543 L96.7767859,19.3983178 L104.125,19.3983178 L104.125,16.8812505 L96.7767859,16.8812505 L96.7767859,11.429087 L104.125,11.429087 L104.125,8.91201969 L94.0625001,8.91201969 L94.0625001,27.5632216 L94.0625001,27.5632216 Z M87.5089287,16.979087 L79.7857144,16.979087 L79.7857144,8.91201969 L77.0714287,8.91201969 L77.0714287,27.5632216 L79.7857144,27.5632216 L79.7857144,19.4516832 L87.5089287,19.4516832 L87.5089287,27.5632216 L90.2232144,27.5632216 L90.2232144,8.91201969 L87.5089287,8.91201969 L87.5089287,16.979087 L87.5089287,16.979087 Z M65.9732144,13.6170678 C65.9732144,12.2651447 67.0982144,11.0555293 68.4553573,11.0555293 C70.0982144,11.0555293 71.0803573,12.1317312 71.0803573,13.7593755 L73.794643,13.7593755 C73.794643,10.5841351 71.544643,8.58293315 68.4553573,8.58293315 C65.5982144,8.58293315 63.2142859,10.7264428 63.2142859,13.6704332 C63.2142859,17.3081735 65.5535716,18.1442312 68.4553573,19.2649043 C70.0000001,19.869712 71.4553573,20.3411062 71.4553573,22.297837 C71.4553573,24.1122601 70.3303573,25.4730774 68.4553573,25.4730774 C66.4910716,25.4730774 65.4107144,23.9343755 65.4107144,22.1110582 L62.6964287,22.1110582 C62.6964287,25.4730774 65.0357144,27.9901447 68.4553573,27.9901447 C71.7767859,27.9901447 74.2142859,25.7043274 74.2142859,22.3512024 C74.2142859,15.2091351 65.9732144,17.5838947 65.9732144,13.6170678 L65.9732144,13.6170678 Z M57.357143,21.4528851 C57.357143,23.6942312 56.1428573,25.419712 53.8035716,25.419712 C51.4642859,25.419712 50.2500001,23.6942312 50.2500001,21.4528851 L50.2500001,8.91201969 L47.5357144,8.91201969 L47.5357144,21.5507216 C47.5357144,23.3651447 48.0535716,25.0906255 49.4553573,26.3536062 C50.6250001,27.4298082 52.2142859,27.9367793 53.8125001,27.9367793 C55.4017859,27.9367793 57.0000001,27.4209139 58.169643,26.3536062 C59.5714287,25.1439908 60.0892859,23.3651447 60.0892859,21.5507216 L60.0892859,8.91201969 L57.3750001,8.91201969 L57.3750001,21.4528851 L57.357143,21.4528851 L57.357143,21.4528851 Z M38.3035716,8.91201969 L32.8750001,8.91201969 L32.8750001,27.5632216 L35.5892859,27.5632216 L35.5892859,20.1987985 L38.2589287,20.1987985 C41.9553573,20.1987985 44.857143,18.5177889 44.857143,14.5598562 C44.9107144,10.5841351 42.0000001,8.91201969 38.3035716,8.91201969 L38.3035716,8.91201969 Z M38.3035716,17.7262024 L35.6339287,17.7262024 L35.6339287,11.429087 L38.3035716,11.429087 C40.3660716,11.429087 42.1875001,12.2651447 42.1875001,14.6043274 C42.1875001,16.9346159 40.3660716,17.7262024 38.3035716,17.7262024 L38.3035716,17.7262024 Z" fill="#dddddd"></path>
</svg>