<?xml version="1.0" standalone="no"?>
<!DOCTYPE svg PUBLIC "-//W3C//DTD SVG 1.1//EN" "http://www.w3.org/Graphics/SVG/1.1/DTD/svg11.dtd" >
<svg xmlns="http://www.w3.org/2000/svg">
<metadata></metadata>
<defs>
<font id="realtime_textlight" horiz-adv-x="1085" >
<font-face units-per-em="2048" ascent="1638" descent="-410" />
<missing-glyph horiz-adv-x="716" />
<glyph horiz-adv-x="0" />
<glyph horiz-adv-x="682" />
<glyph unicode=" "  horiz-adv-x="716" />
<glyph unicode="&#x09;" horiz-adv-x="716" />
<glyph unicode="&#xa0;" horiz-adv-x="716" />
<glyph unicode="!" horiz-adv-x="507" d="M184 0v139h140v-139h-140zM213 836v475h82v-475l-14 -406h-54z" />
<glyph unicode="&#x22;" d="M397 1311h86l-14 -490h-57zM602 1311h86l-14 -490h-58z" />
<glyph unicode="#" d="M90 389v78h189l65 377h-192v78h206l68 389h78l-68 -389h307l68 389h78l-68 -389h176v-78h-190l-66 -377h195v-78h-209l-68 -389h-77l67 389h-307l-68 -389h-77l67 389h-174zM356 467h308l65 377h-307z" />
<glyph unicode="$" d="M164 340h82q0 -266 260 -281v568q-63 26 -102 44.5t-90 52.5t-80 70t-49.5 90t-20.5 120q0 143 86.5 230.5t255.5 96.5v113h74v-113q172 -9 257 -101.5t85 -258.5h-82q0 265 -260 280v-567q45 -18 73.5 -31t68 -34t65 -40.5t54 -48.5t44.5 -60t26.5 -72.5t10.5 -88.5 q0 -144 -86 -232t-256 -97v-113h-74v113q-172 9 -257 101.5t-85 258.5zM246 1001q0 -46 14.5 -85.5t36.5 -67t58.5 -53.5t69.5 -43t81 -37v536q-130 -7 -195 -73.5t-65 -176.5zM580 59q130 7 195 73.5t65 176.5q0 46 -14.5 85.5t-36.5 67.5t-58 54t-69.5 43t-81.5 37v-537z " />
<glyph unicode="%" d="M123 780v101q0 88 49 136t147 48t146.5 -48t48.5 -136v-101q0 -90 -48.5 -138t-146.5 -48t-147 48.5t-49 137.5zM139 23l756 1038l59 -43l-755 -1038zM201 778q0 -112 118 -112q117 0 117 112v103q0 112 -117 112q-118 0 -118 -112v-103zM582 166v100q0 88 49 136.5 t147 48.5t146.5 -48.5t48.5 -136.5v-100q0 -90 -48.5 -138t-146.5 -48t-147 48.5t-49 137.5zM659 164q0 -113 119 -113q117 0 117 113v102q0 113 -117 113q-119 0 -119 -113v-102z" />
<glyph unicode="&#x26;" d="M164 340v98q0 139 69.5 228.5t186.5 113.5q-41 63 -65.5 105.5t-46 107t-21.5 123.5q0 116 70 186t178 70q144 0 262 -125l-52 -53q-100 100 -206 100q-70 0 -120 -48.5t-50 -125.5q0 -22 4 -46t8 -42t14.5 -43t16.5 -39t21.5 -40t21 -35t23 -37t20.5 -33l325 -514 q62 143 62 340h78q0 -254 -89 -420l99 -156v-55h-64l-84 135q-124 -155 -317 -155q-166 0 -255 95t-89 265zM246 340q0 -133 69 -208t197 -75q165 0 268 150l-313 502q-112 -18 -166.5 -88t-54.5 -183v-98z" />
<glyph unicode="'" horiz-adv-x="454" d="M184 1311h86l-14 -490h-57z" />
<glyph unicode="(" d="M360 596q0 226 78.5 433.5t220.5 375.5l58 -51q-131 -157 -203 -351t-72 -407t72 -407t203 -351l-58 -51q-142 168 -220.5 375.5t-78.5 433.5z" />
<glyph unicode=")" d="M360 -162q131 157 203 351t72 407t-72 407t-203 351l58 51q142 -168 220.5 -375.5t78.5 -433.5t-78.5 -433.5t-220.5 -375.5z" />
<glyph unicode="*" d="M221 1108l25 78l278 -99l-6 295h82l-6 -295l278 99l25 -78l-285 -86l181 -234l-66 -49l-168 244l-168 -244l-65 49l180 234z" />
<glyph unicode="+" d="M174 565v70h334v334h70v-334h333v-70h-333v-334h-70v334h-334z" />
<glyph unicode="," horiz-adv-x="507" d="M184 0v139h140v-100l-78 -211h-62l47 172h-47z" />
<glyph unicode="-" horiz-adv-x="757" d="M143 524v70h471v-70h-471z" />
<glyph unicode="." horiz-adv-x="507" d="M184 0v139h140v-139h-140z" />
<glyph unicode="/" d="M305 -61l393 1433h82l-393 -1433h-82z" />
<glyph unicode="0" d="M154 340v633q0 172 94 265t284 93t284.5 -93t94.5 -265v-633q0 -174 -94.5 -267t-284.5 -93t-284 93t-94 267zM236 340q0 -283 296 -283q297 0 297 283v631q0 282 -297 282q-296 0 -296 -282v-631z" />
<glyph unicode="1" d="M190 1120l324 191h70v-1233h286v-78h-655v78h287v1128l-271 -155z" />
<glyph unicode="2" d="M164 0v193l493 466q106 101 144.5 170.5t38.5 147.5q0 276 -297 276t-297 -282v-49h-82v51q0 172 94.5 265t284.5 93q189 0 284 -92t95 -260q0 -99 -43 -180.5t-164 -196.5l-469 -444v-80h665v-78h-747z" />
<glyph unicode="3" d="M164 330v28h82v-28q0 -137 73 -205t224 -68q149 0 223 71.5t74 203.5v14q0 132 -74 203.5t-223 71.5h-76v69h76q149 0 223 71.5t74 203.5v14q0 132 -74 203t-223 71q-297 0 -297 -282v-19h-82v21q0 172 94.5 265t284.5 93t284.5 -93t94.5 -265q0 -248 -191 -318 q191 -70 191 -315q0 -174 -94.5 -267t-284.5 -93q-379 0 -379 350z" />
<glyph unicode="4" d="M164 328v153l416 830h92l-426 -846v-59h430v352h82v-352h205v-78h-205v-328h-82v328h-512z" />
<glyph unicode="5" d="M164 340h82q0 -283 297 -283t297 283v186q0 283 -297 283q-123 0 -196 -54t-97 -126l-74 8l41 674h664v-78h-584l-33 -451q105 105 293 105q178 0 271.5 -94t93.5 -265v-188q0 -174 -94.5 -267t-284.5 -93t-284.5 93t-94.5 267z" />
<glyph unicode="6" d="M164 340v633q0 172 94 265t281 93q185 0 278.5 -91.5t93.5 -258.5h-82q0 131 -72.5 201.5t-217.5 70.5q-293 0 -293 -282v-269q86 144 313 144q179 0 271 -94t92 -265v-147q0 -174 -94.5 -267t-284.5 -93t-284.5 93t-94.5 267zM246 340q0 -283 297 -283t297 283v145 q0 283 -293 283q-147 0 -224 -81.5t-77 -221.5v-125z" />
<glyph unicode="7" d="M164 1106v205h758v-205l-527 -1106h-90l535 1120v113h-594v-127h-82z" />
<glyph unicode="8" d="M143 340q0 259 215 332q-194 74 -194 307q0 165 96.5 258.5t282.5 93.5t282.5 -93.5t96.5 -258.5q0 -113 -49.5 -191.5t-145.5 -115.5q215 -73 215 -332q0 -360 -399 -360q-400 0 -400 360zM225 332q0 -275 318 -275q317 0 317 275v14q0 135 -80 212t-237 77t-237.5 -77 t-80.5 -212v-14zM246 971q0 -120 77 -193t220 -73t220 73t77 193v14q0 125 -75.5 196.5t-221.5 71.5t-221.5 -71.5t-75.5 -196.5v-14z" />
<glyph unicode="9" d="M164 823v148q0 174 94.5 267t284.5 93t284.5 -93t94.5 -267v-633q0 -172 -94 -265t-281 -93q-185 0 -279 92t-94 258h82q0 -131 73 -202t218 -71q293 0 293 283v268q-85 -143 -314 -143q-179 0 -270.5 93.5t-91.5 264.5zM246 825q0 -282 293 -282q147 0 224 81.5 t77 221.5v125q0 282 -297 282t-297 -282v-146z" />
<glyph unicode=":" horiz-adv-x="507" d="M184 0v139h140v-139h-140zM184 803v139h140v-139h-140z" />
<glyph unicode=";" horiz-adv-x="507" d="M184 0v139h140v-100l-78 -211h-62l47 172h-47zM184 803v139h140v-139h-140z" />
<glyph unicode="&#x3c;" d="M174 573v54l737 254v-74l-602 -207l602 -207v-74z" />
<glyph unicode="=" d="M174 442v70h737v-70h-737zM174 688v70h737v-70h-737z" />
<glyph unicode="&#x3e;" d="M174 319v74l602 207l-602 207v74l737 -254v-54z" />
<glyph unicode="?" d="M164 922v51q0 172 94.5 265t284.5 93t284.5 -93t94.5 -265v-80q0 -164 -85 -256.5t-255 -101.5l-4 -187h-70l-6 262h41q297 0 297 283v78q0 282 -297 282t-297 -282v-49h-82zM473 0v139h139v-139h-139z" />
<glyph unicode="@" d="M143 340v489q0 359 400 359q399 0 399 -359v-546h-63l-13 92q-35 -52 -102.5 -82.5t-149.5 -30.5q-126 0 -202 70.5t-76 204.5v12q0 126 75.5 196t229.5 70h219v12q0 140 -76.5 211.5t-240.5 71.5t-241 -71.5t-77 -211.5v-487q0 -139 77 -209t241 -70q69 0 137.5 12 t103 23t90.5 31l29 -74q-196 -73 -360 -73q-400 0 -400 360zM418 537q0 -97 54 -147t142 -50q104 0 175 52.5t71 125.5v219h-217q-116 0 -170.5 -49.5t-54.5 -138.5v-12z" />
<glyph unicode="A" d="M143 0v123l369 1188h61l369 -1188v-123h-82v115l-94 307h-447l-94 -307v-115h-82zM344 500h397l-198 645z" />
<glyph unicode="B" d="M164 0v1311h348q190 0 284.5 -90t94.5 -256q0 -232 -191 -303q222 -66 222 -314q0 -168 -94.5 -258t-284.5 -90h-379zM246 78h297q297 0 297 264v8q0 266 -297 266h-297v-538zM246 694h266q297 0 297 264v9q0 266 -297 266h-266v-539z" />
<glyph unicode="C" d="M164 340v633q0 172 94.5 265t284.5 93t284.5 -93t94.5 -265v-51h-82v49q0 282 -297 282t-297 -282v-631q0 -283 297 -283t297 283v49h82v-49q0 -174 -94.5 -267t-284.5 -93t-284.5 93t-94.5 267z" />
<glyph unicode="D" d="M164 0v1311h379q190 0 284.5 -93.5t94.5 -265.5v-592q0 -174 -94.5 -267t-284.5 -93h-379zM246 78h297q297 0 297 282v590q0 283 -297 283h-297v-1155z" />
<glyph unicode="E" d="M195 0v1311h696v-78h-615v-539h512v-78h-512v-538h615v-78h-696z" />
<glyph unicode="F" d="M195 0v1311h696v-78h-615v-539h512v-78h-512v-616h-81z" />
<glyph unicode="G" d="M164 340v633q0 172 94.5 265t284.5 93t284.5 -93t94.5 -265v-31h-82v29q0 282 -297 282t-297 -282v-631q0 -283 297 -283t297 283v207h-256v78h338v-285q0 -174 -94.5 -267t-284.5 -93t-284.5 93t-94.5 267z" />
<glyph unicode="H" d="M164 0v1311h82v-606h594v606h82v-1311h-82v627h-594v-627h-82z" />
<glyph unicode="I" d="M215 0v78h287v1155h-287v78h655v-78h-286v-1155h286v-78h-655z" />
<glyph unicode="J" d="M164 340v29h82v-29q0 -283 297 -283t297 283v913h-453v78h535v-991q0 -174 -94.5 -267t-284.5 -93t-284.5 93t-94.5 267z" />
<glyph unicode="K" d="M164 0v1311h82v-606h231l385 606h60v-56l-375 -589l375 -611v-55h-60l-385 627h-231v-627h-82z" />
<glyph unicode="L" horiz-adv-x="1044" d="M195 0v1311h81v-1233h615v-78h-696z" />
<glyph unicode="M" d="M164 0v1311h61l318 -637l317 637h62v-1311h-82v1102l-256 -508h-84l-254 504v-1098h-82z" />
<glyph unicode="N" d="M164 0v1311h61l615 -1123v1123h82v-1311h-62l-614 1122v-1122h-82z" />
<glyph unicode="O" d="M164 340v633q0 172 94.5 265t284.5 93t284.5 -93t94.5 -265v-633q0 -174 -94.5 -267t-284.5 -93t-284.5 93t-94.5 267zM246 340q0 -283 297 -283t297 283v631q0 282 -297 282t-297 -282v-631z" />
<glyph unicode="P" d="M164 0v1311h379q190 0 284.5 -90t94.5 -256q0 -168 -94.5 -258.5t-284.5 -90.5h-297v-616h-82zM246 694h297q297 0 297 264v9q0 266 -297 266h-297v-539z" />
<glyph unicode="Q" d="M154 340v633q0 172 94 265t284 93t284.5 -93t94.5 -265v-633q0 -162 -81.5 -254t-245.5 -104v-146h-82v144q-175 7 -261.5 100.5t-86.5 259.5zM236 340q0 -268 266 -283v144h82v-142q245 23 245 281v631q0 282 -297 282q-296 0 -296 -282v-631z" />
<glyph unicode="R" d="M164 0v1311h379q190 0 284.5 -90t94.5 -256q0 -283 -260 -338l260 -568v-59h-68l-281 616h-30h-297v-616h-82zM246 694h297q297 0 297 264v9q0 266 -297 266h-297v-539z" />
<glyph unicode="S" d="M164 340h82q0 -283 297 -283q148 0 222.5 67t74.5 185q0 77 -37.5 133.5t-97 91.5t-131.5 64.5t-144 62t-131.5 73.5t-97 109.5t-37.5 160.5q0 151 95.5 239t283.5 88q190 0 284.5 -93t94.5 -267h-82q0 282 -297 282q-148 0 -222.5 -67t-74.5 -185q0 -77 37.5 -133.5 t97 -91t131.5 -63.5t144 -61.5t131.5 -73t97 -109t37.5 -160.5q0 -153 -95.5 -241t-283.5 -88q-190 0 -284.5 93t-94.5 267z" />
<glyph unicode="T" horiz-adv-x="1044" d="M92 1233v78h860v-78h-389v-1233h-82v1233h-389z" />
<glyph unicode="U" d="M164 340v971h82v-971q0 -283 297 -283t297 283v971h82v-971q0 -174 -94.5 -267t-284.5 -93t-284.5 93t-94.5 267z" />
<glyph unicode="V" d="M143 1188v123h82v-115l318 -1030l317 1030v115h82v-123l-369 -1188h-61z" />
<glyph unicode="W" d="M123 1311h80l112 -1100l191 520h72l192 -524l113 1104h80l-134 -1311h-57l-229 621l-230 -621h-57z" />
<glyph unicode="X" d="M164 0v55l334 600l-334 600v56h63l316 -568l315 568h64v-56l-334 -600l334 -600v-55h-64l-315 567l-316 -567h-63z" />
<glyph unicode="Y" d="M143 1147v164h82v-142l318 -530l317 530v142h82v-164l-358 -598v-549h-82v549z" />
<glyph unicode="Z" d="M164 0v205l676 919v109h-676v78h758v-205l-676 -920v-108h676v-78h-758z" />
<glyph unicode="[" d="M410 -133v1577h297v-78h-215v-1421h215v-78h-297z" />
<glyph unicode="\" d="M305 1372h82l393 -1433h-82z" />
<glyph unicode="]" d="M389 -55h215v1421h-215v78h297v-1577h-297v78z" />
<glyph unicode="^" d="M203 631l321 680h35l324 -680h-84l-256 543l-254 -543h-86z" />
<glyph unicode="_" d="M-10 -205h1106v-61h-1106v61z" />
<glyph unicode="`" d="M428 1266v65h80l168 -205v-57h-41z" />
<glyph unicode="a" d="M164 254v12q0 125 95 195.5t280 70.5h290v82q0 133 -67.5 202t-198.5 69q-69 0 -124 -17t-87 -43.5t-49.5 -55.5t-19.5 -58h-76q-1 39 21.5 82t64.5 81.5t113 63.5t157 25q172 0 260 -89.5t88 -259.5v-614h-63l-17 125q-46 -67 -136.5 -106t-202.5 -39q-151 0 -239.5 70 t-88.5 204zM246 254q0 -97 68 -147t178 -50q143 0 240 67t97 157v174h-288q-146 0 -220.5 -50.5t-74.5 -138.5v-12z" />
<glyph unicode="b" d="M174 0v1311h82v-502q45 73 129.5 113.5t185.5 40.5q162 0 256.5 -96.5t94.5 -264.5v-262q0 -168 -94.5 -264t-256.5 -96q-101 0 -186.5 41t-130.5 114l-16 -135h-64zM256 309q0 -112 91 -182t224 -70q121 0 195 76t74 207v262q0 131 -74 207t-195 76q-133 0 -224 -70 t-91 -182v-324z" />
<glyph unicode="c" d="M164 340v262q0 173 95.5 267t289.5 94q91 0 164 -27t117.5 -71t68 -97t23.5 -109h-82q0 88 -76.5 157t-214.5 69q-153 0 -228 -73.5t-75 -209.5v-262q0 -136 75 -209.5t228 -73.5q138 0 214.5 69t76.5 157h82q0 -56 -23.5 -109t-68 -97t-117.5 -70.5t-164 -26.5 q-194 0 -289.5 93.5t-95.5 266.5z" />
<glyph unicode="d" d="M164 340v262q0 168 94 264.5t256 96.5q101 0 185.5 -40.5t129.5 -113.5v502h82v-1311h-63l-17 135q-45 -73 -130.5 -114t-186.5 -41q-162 0 -256 96t-94 264zM246 340q0 -131 73.5 -207t194.5 -76q133 0 224 70t91 182v324q0 112 -91 182t-224 70q-121 0 -194.5 -76 t-73.5 -207v-262z" />
<glyph unicode="e" d="M164 340v262q0 173 94.5 267t284.5 94t284.5 -94t94.5 -267v-133h-676v-129q0 -135 74 -209t223 -74q144 0 220.5 67t76.5 165h82q0 -134 -97 -221.5t-282 -87.5q-190 0 -284.5 93.5t-94.5 266.5zM246 547h594v65q0 128 -74.5 200.5t-222.5 72.5q-149 0 -223 -74 t-74 -209v-55z" />
<glyph unicode="f" horiz-adv-x="743" d="M88 864v78h199v188q0 112 56 177t159 65t203 -63l-37 -64q-87 49 -166 49q-63 0 -98 -41.5t-35 -119.5v-191h221v-78h-221v-864h-82v864h-199z" />
<glyph unicode="g" d="M164 504v98q0 168 94 264.5t256 96.5q101 0 186.5 -41.5t130.5 -114.5l17 135h63v-848q0 -172 -92.5 -266t-275.5 -94q-164 0 -251 86.5t-87 222.5h82q0 -99 66.5 -165t189.5 -66q142 0 214 73.5t72 208.5v203q-45 -73 -129.5 -113.5t-185.5 -40.5q-162 0 -256 96.5 t-94 264.5zM246 504q0 -131 73.5 -207t194.5 -76q133 0 224 70t91 182v160q0 112 -91 182t-224 70q-121 0 -194.5 -76t-73.5 -207v-98z" />
<glyph unicode="h" d="M174 0v1311h82v-516q48 77 137.5 122.5t196.5 45.5q159 0 240 -86t81 -254v-623h-82v623q0 262 -239 262q-141 0 -237.5 -79.5t-96.5 -193.5v-612h-82z" />
<glyph unicode="i" horiz-adv-x="536" d="M205 1151v127h127v-127h-127zM227 0v942h82v-942h-82z" />
<glyph unicode="j" horiz-adv-x="614" d="M-10 -219l28 67q77 -36 158 -36q67 0 98 40.5t31 135.5v954h82v-962q0 -246 -207 -246q-98 0 -190 47zM283 1151v127h127v-127h-127z" />
<glyph unicode="k" d="M184 0v1311h82v-801h170l406 432h59v-47l-397 -424l397 -424v-47h-59l-406 432h-170v-432h-82z" />
<glyph unicode="l" horiz-adv-x="491" d="M205 0v1311h82v-1311h-82z" />
<glyph unicode="m" horiz-adv-x="1638" d="M174 0v942h64l18 -143q46 75 129 119.5t174 44.5q110 0 183 -50t100 -147q39 88 129 142.5t192 54.5q145 0 223 -85t78 -251v-627h-82v627q0 129 -57.5 193.5t-161.5 64.5q-121 0 -212 -78.5t-91 -190.5v-616h-82v627q0 129 -57.5 193.5t-161.5 64.5q-121 0 -212 -78.5 t-91 -190.5v-616h-82z" />
<glyph unicode="n" d="M174 0v942h64l18 -147q48 77 137.5 122.5t196.5 45.5q159 0 240 -86t81 -254v-623h-82v623q0 262 -239 262q-141 0 -237.5 -79.5t-96.5 -193.5v-612h-82z" />
<glyph unicode="o" d="M164 340v262q0 173 94.5 267t284.5 94t284.5 -94t94.5 -267v-262q0 -173 -94.5 -266.5t-284.5 -93.5t-284.5 93.5t-94.5 266.5zM246 340q0 -135 74 -209t223 -74t223 74t74 209v262q0 135 -74 209t-223 74t-223 -74t-74 -209v-262z" />
<glyph unicode="p" d="M174 -246v1188h64l16 -135q45 73 130.5 114.5t186.5 41.5q162 0 256.5 -96.5t94.5 -264.5v-262q0 -168 -94.5 -264t-256.5 -96q-101 0 -185.5 40t-129.5 113v-379h-82zM256 309q0 -112 91 -182t224 -70q121 0 195 76t74 207v262q0 131 -74 207t-195 76q-133 0 -224 -70 t-91 -182v-324z" />
<glyph unicode="q" d="M164 340v262q0 168 94 264.5t256 96.5q101 0 186.5 -41.5t130.5 -114.5l17 135h63v-1188h-82v379q-45 -73 -129.5 -113t-185.5 -40q-162 0 -256 96t-94 264zM246 340q0 -131 73.5 -207t194.5 -76q133 0 224 70t91 182v324q0 112 -91 182t-224 70q-121 0 -194.5 -76 t-73.5 -207v-262z" />
<glyph unicode="r" horiz-adv-x="641" d="M174 0v942h64l18 -143q39 77 122 120.5t202 43.5v-78q-158 0 -241 -76.5t-83 -196.5v-612h-82z" />
<glyph unicode="s" d="M195 268h81q0 -99 70 -155t201 -56q122 0 192 51.5t70 129.5q0 32 -10 57.5t-32 45t-43.5 33t-60 26t-64 19t-71.5 17.5q-60 14 -98.5 25t-87.5 33t-77.5 48t-49 68.5t-20.5 96.5q0 111 91 183.5t253 72.5q170 0 261 -78t91 -211h-82q0 99 -70 155t-200 56 q-122 0 -192.5 -51t-70.5 -129q0 -21 5.5 -40t12.5 -33.5t24 -28.5t27.5 -22.5t36 -19t38 -15.5t45 -14t44.5 -12l48 -12q42 -10 70 -17t66.5 -20t63.5 -26.5t53 -34t44 -44.5t26.5 -56.5t10.5 -71.5q0 -113 -91 -185.5t-253 -72.5q-170 0 -261 77t-91 211z" />
<glyph unicode="t" horiz-adv-x="743" d="M68 864v78h198v211l82 16v-227h221v-78h-221v-645q0 -78 35.5 -120t97.5 -42q79 0 166 49l37 -63q-100 -63 -203 -63t-159 64.5t-56 176.5v643h-198z" />
<glyph unicode="u" d="M174 319v623h82v-623q0 -262 240 -262q141 0 237 79.5t96 193.5v612h82v-942h-63l-19 147q-47 -77 -136.5 -122t-196.5 -45q-159 0 -240.5 85.5t-81.5 253.5z" />
<glyph unicode="v" d="M164 819v123h82v-113l297 -720l297 720v113h82v-123l-342 -819h-74z" />
<glyph unicode="w" horiz-adv-x="1351" d="M129 942h78l174 -809l266 598h58l266 -598l174 809h78l-203 -942h-74l-270 612l-270 -612h-74z" />
<glyph unicode="x" d="M164 0v45l330 426l-330 426v45h63l316 -412l315 412h64v-45l-330 -426l330 -426v-45h-64l-315 412l-316 -412h-63z" />
<glyph unicode="y" d="M164 819v123h82v-113l299 -723l295 723v113h82v-123l-445 -1065h-80l105 256z" />
<glyph unicode="z" d="M178 0v164l647 635v65h-647v78h729v-164l-647 -635v-65h647v-78h-729z" />
<glyph unicode="{" d="M264 561v74q248 9 248 188q0 49 -3 171t-3 188q0 50 7.5 84.5t28 65t57.5 48t96.5 27.5t144.5 10v-76q-149 0 -200.5 -32.5t-51.5 -124.5q0 -48 -1 -170.5t-1 -196.5q0 -183 -170 -219q170 -36 170 -219q0 -74 1 -196.5t1 -170.5q0 -92 51.5 -124.5t200.5 -32.5v-76 q-85 0 -144.5 10t-96.5 27.5t-57.5 48t-28 65t-7.5 84.5q0 66 3 188t3 171q0 179 -248 188z" />
<glyph unicode="|" d="M504 -246v1802h78v-1802h-78z" />
<glyph unicode="}" d="M246 -145q149 0 200.5 32.5t51.5 124.5q0 48 1 170.5t1 196.5q0 183 170 219q-170 36 -170 219q0 74 -1 196.5t-1 170.5q0 92 -51.5 124.5t-200.5 32.5v76q85 0 144.5 -10t96.5 -27.5t57.5 -48t28 -65t7.5 -84.5q0 -66 -3.5 -188t-3.5 -171q0 -179 248 -188v-74 q-248 -9 -248 -188q0 -49 3.5 -171t3.5 -188q0 -50 -7.5 -84.5t-28 -65t-57.5 -48t-96.5 -27.5t-144.5 -10v76z" />
<glyph unicode="~" d="M158 518q0 106 44.5 157.5t123.5 51.5q31 0 73 -14.5t72 -29.5t86 -46q11 -6 39.5 -21.5t39 -21t32 -16t34 -14.5t28.5 -7.5t30 -3.5q88 0 94 131h72q0 -106 -44.5 -157.5t-123.5 -51.5q-31 0 -74 15t-70 28.5t-88 46.5q-10 5 -39.5 21t-39 21.5t-32 16t-34.5 14.5 t-28 7.5t-29 3.5q-89 0 -95 -131h-71z" />
<glyph unicode="&#xa1;" horiz-adv-x="507" d="M184 803v139h140v-139h-140zM213 106l14 406h54l14 -406v-475h-82v475z" />
<glyph unicode="&#xa2;" d="M164 340v262q0 163 85 256t257 103v114h74v-112q83 -4 150 -32.5t108 -72t62.5 -94.5t21.5 -105h-82q0 39 -16.5 76t-47.5 69.5t-82 54.5t-114 26v-828q63 4 114 26t82 54.5t47.5 69.5t16.5 76h82q0 -53 -21.5 -104.5t-62.5 -94.5t-108 -71.5t-150 -32.5v-113h-74v115 q-172 10 -257 102.5t-85 255.5zM246 340q0 -126 64.5 -198.5t195.5 -82.5v824q-131 -10 -195.5 -82.5t-64.5 -198.5v-262z" />
<glyph unicode="&#xa3;" d="M174 0v47q135 213 135 459l-2 45h-123v74h115q-7 46 -40.5 176.5t-33.5 212.5q0 146 85.5 231.5t232.5 85.5t232 -84t85 -225h-82q0 105 -64.5 168t-170.5 63q-107 0 -171.5 -64t-64.5 -177q0 -84 32.5 -212t39.5 -175h266v-74h-258v-37q0 -223 -113 -436h637v-78h-737z " />
<glyph unicode="&#xa4;" d="M160 221l135 135q-59 83 -59 193q0 113 61 192l-137 138l55 53l135 -135q78 59 193 59t192 -61l137 137l54 -53l-138 -138q62 -83 62 -192q0 -111 -62 -191l138 -137l-54 -55l-139 137q-77 -61 -190 -61q-115 0 -193 59l-135 -135zM313 549q0 -105 64.5 -169.5 t165.5 -64.5t165 64t64 170t-64 169.5t-165 63.5t-165.5 -64t-64.5 -169z" />
<glyph unicode="&#xa5;" d="M143 1147v164h82v-142l318 -530l317 530v142h82v-164l-211 -350h170v-74h-213l-82 -135h295v-74h-317v-514h-82v514h-318v74h295l-82 135h-213v74h170z" />
<glyph unicode="&#xa6;" d="M504 -246v707h78v-707h-78zM504 850v706h78v-706h-78z" />
<glyph unicode="&#xa7;" d="M164 600q0 173 133 248q-92 79 -92 205q0 127 89 202.5t249 75.5q162 0 250 -80t88 -225l-82 2q0 112 -66 168.5t-190 56.5q-122 0 -189 -52.5t-67 -147.5q0 -55 27.5 -98.5t72 -70t101.5 -52.5t116.5 -45.5t116.5 -48.5t101.5 -62.5t72 -88t27.5 -122.5 q0 -172 -134 -248q93 -79 93 -205q0 -127 -89 -202.5t-249 -75.5q-162 0 -250 80t-88 225l82 -2q0 -112 66 -168.5t190 -56.5q122 0 189 52.5t67 147.5q0 55 -27.5 98.5t-72 70t-101.5 52.5t-116.5 45.5t-116.5 48.5t-101.5 62.5t-72 88t-27.5 122.5zM246 600q0 -61 29 -106 t82 -75t107.5 -51t127.5 -48.5t119 -51.5q129 48 129 197q0 61 -29 106t-82 75t-107.5 51t-127.5 48.5t-119 51.5q-129 -48 -129 -197z" />
<glyph unicode="&#xa8;" d="M315 1151v127h127v-127h-127zM643 1151v127h127v-127h-127z" />
<glyph unicode="&#xa9;" d="M123 694q0 174 123 297t297 123q173 0 296.5 -123.5t123.5 -296.5t-123.5 -296.5t-296.5 -123.5q-174 0 -297 123t-123 297zM195 694q0 -145 101.5 -246.5t246.5 -101.5t246.5 101.5t101.5 246.5t-101.5 246.5t-246.5 101.5t-246.5 -101.5t-101.5 -246.5zM367 633v123 q0 168 180 168q91 0 135.5 -43.5t44.5 -122.5h-72q0 50 -26.5 72t-81.5 22t-82 -22t-27 -72v-127q0 -50 27 -72t82 -22t81.5 22t26.5 72h72q0 -79 -44.5 -122.5t-135.5 -43.5q-180 0 -180 168z" />
<glyph unicode="&#xaa;" d="M276 836v8q0 89 68 138.5t195 49.5h188v55q0 170 -168 170q-83 0 -128 -33t-50 -75h-74q-2 65 66.5 123.5t189.5 58.5t183.5 -64.5t62.5 -183.5v-426h-66l-12 80q-34 -43 -94 -68.5t-131 -25.5q-105 0 -167.5 50t-62.5 143zM356 838q0 -59 42.5 -90t111.5 -31 q90 0 153.5 42.5t63.5 98.5v105h-186q-92 0 -138.5 -31t-46.5 -86v-8z" />
<glyph unicode="&#xab;" d="M170 520l293 398l65 -46l-256 -352l256 -352l-65 -45zM477 520l281 381l65 -45l-243 -336l243 -336l-65 -45z" />
<glyph unicode="&#xac;" d="M174 565v70h737v-234h-61v164h-676z" />
<glyph unicode="&#xad;" horiz-adv-x="757" d="M143 524v70h471v-70h-471z" />
<glyph unicode="&#xae;" d="M123 694q0 174 123 297t297 123q173 0 296.5 -123.5t123.5 -296.5t-123.5 -296.5t-296.5 -123.5q-174 0 -297 123t-123 297zM195 694q0 -145 101.5 -246.5t246.5 -101.5t246.5 101.5t101.5 246.5t-101.5 246.5t-246.5 101.5t-246.5 -101.5t-101.5 -246.5zM393 469v451 h158q158 0 158 -142q0 -94 -74 -127l74 -141v-41h-56l-86 168h-16h-90v-168h-68zM461 700h90q47 0 68.5 18t21.5 58v4q0 76 -90 76h-90v-156z" />
<glyph unicode="&#xaf;" d="M307 1135v82h471v-82h-471z" />
<glyph unicode="&#xb0;" d="M297 1085q0 101 72.5 173.5t173.5 72.5t173 -72.5t72 -173.5t-72 -173t-173 -72t-173.5 72t-72.5 173zM369 1085q0 -72 51 -123t123 -51t123 51t51 123t-51 123.5t-123 51.5t-123 -51.5t-51 -123.5z" />
<glyph unicode="&#xb1;" d="M174 197v69h737v-69h-737zM174 647v70h334v293h70v-293h333v-70h-333v-293h-70v293h-334z" />
<glyph unicode="&#xb4;" d="M410 1069v57l168 205h79v-65l-206 -197h-41z" />
<glyph unicode="&#xb5;" d="M174 -246v1188h82v-623q0 -262 240 -262q141 0 237 79.5t96 193.5v612h82v-942h-63l-19 147q-47 -77 -136.5 -122t-196.5 -45q-160 0 -240 86v-312h-82z" />
<glyph unicode="&#xb6;" d="M184 1010q0 144 82.5 222.5t247.5 78.5h346v-1557h-82v1475h-182v-1475h-82v953q-165 0 -247.5 78.5t-82.5 224.5z" />
<glyph unicode="&#xb7;" horiz-adv-x="507" d="M184 492v139h140v-139h-140z" />
<glyph unicode="&#xb8;" d="M420 -147h74q0 -41 55 -41t55 49v26q0 47 -55 47h-68v72h68q66 0 99.5 -33t33.5 -94v-12q0 -61 -33.5 -94t-99.5 -33q-64 0 -96.5 31.5t-32.5 81.5z" />
<glyph unicode="&#xba;" d="M272 899v176q0 123 68 189.5t203 66.5q134 0 202 -67t68 -189v-176q0 -122 -68 -189t-202 -67q-135 0 -203 66.5t-68 189.5zM354 897q0 -86 47.5 -132t141.5 -46t141 46t47 132v180q0 86 -47 132t-141 46t-141.5 -46t-47.5 -132v-180z" />
<glyph unicode="&#xbb;" d="M262 184l244 336l-244 336l66 45l280 -381l-280 -381zM557 168l256 352l-256 352l66 46l292 -398l-292 -397z" />
<glyph unicode="&#xbc;" d="M133 20l316 517l43 -27l-291 -530zM133 1214l166 97h57v-588h131v-68h-335v68h131v494l-115 -64zM559 150v92l203 413h82l-211 -434v-4h176v162h74v-162h92v-67h-92v-150h-74v150h-250zM598 801l289 528l69 -39l-315 -514z" />
<glyph unicode="&#xbd;" d="M113 1214l166 97h57v-588h131v-68h-336v68h131v494l-115 -64zM133 20l316 517l43 -27l-291 -530zM571 0v125l242 223q45 41 60.5 70t15.5 63q0 117 -121 117q-67 0 -95 -29t-28 -102h-74v25q0 76 50.5 125t146.5 49q98 0 146.5 -48.5t48.5 -136.5q0 -49 -21 -88t-78 -92 l-221 -203v-30h313v-68h-385zM598 801l289 528l69 -39l-315 -514z" />
<glyph unicode="&#xbe;" d="M123 817v27h74q0 -75 27.5 -103t94.5 -28q121 0 121 112v13q0 116 -127 116h-37v60h37q127 0 127 114v13q0 112 -121 112q-67 0 -94.5 -29t-27.5 -102h-74v25q0 76 50.5 125t145.5 49q98 0 146.5 -48t48.5 -136q0 -117 -82 -154q82 -40 82 -152q0 -90 -48.5 -138 t-146.5 -48q-96 0 -146 47.5t-50 124.5zM133 20l316 517l43 -27l-291 -530zM561 150v92l203 413h82l-211 -434v-4h176v162h74v-162h92v-67h-92v-150h-74v150h-250zM598 801l289 528l69 -39l-315 -514z" />
<glyph unicode="&#xbf;" d="M164 -31v80q0 164 85 257t255 102l4 186h70l6 -262h-41q-297 0 -297 -283v-78q0 -282 297 -282t297 282v49h82v-51q0 -172 -94.5 -265t-284.5 -93t-284.5 93t-94.5 265zM473 803v139h139v-139h-139z" />
<glyph unicode="&#xc0;" d="M143 0v123l369 1188h61l369 -1188v-123h-82v115l-94 307h-447l-94 -307v-115h-82zM344 500h397l-198 645zM418 1604v65h80l168 -205v-57h-41z" />
<glyph unicode="&#xc1;" d="M143 0v123l369 1188h61l369 -1188v-123h-82v115l-94 307h-447l-94 -307v-115h-82zM344 500h397l-198 645zM418 1407v57l168 205h80v-65l-207 -197h-41z" />
<glyph unicode="&#xc2;" d="M143 0v123l369 1188h61l369 -1188v-123h-82v115l-94 307h-447l-94 -307v-115h-82zM303 1407v53l213 209h51l213 -209v-53h-41l-196 170l-199 -170h-41zM344 500h397l-198 645z" />
<glyph unicode="&#xc3;" d="M143 0v123l369 1188h61l369 -1188v-123h-82v115l-94 307h-447l-94 -307v-115h-82zM256 1509q50 125 164 125q39 0 71 -13t74 -42q60 -43 111 -43q60 0 94 72l59 -23q-24 -59 -66 -93t-97 -34q-64 0 -146 55q-36 26 -59 34.5t-51 8.5q-62 0 -95 -71zM344 500h397l-198 645 z" />
<glyph unicode="&#xc4;" d="M143 0v123l369 1188h61l369 -1188v-123h-82v115l-94 307h-447l-94 -307v-115h-82zM315 1489v127h127v-127h-127zM344 500h397l-198 645zM643 1489v127h127v-127h-127z" />
<glyph unicode="&#xc5;" d="M143 0v123l369 1188h61l369 -1188v-123h-82v115l-94 307h-447l-94 -307v-115h-82zM344 500h397l-198 645zM377 1571q0 69 44.5 116.5t121.5 47.5t121.5 -47.5t44.5 -116.5t-47 -114.5t-119 -45.5q-73 0 -119.5 45.5t-46.5 114.5zM446 1573q0 -40 28 -67t69 -27t68.5 27 t27.5 67t-26 67t-70 27t-70.5 -27t-26.5 -67z" />
<glyph unicode="&#xc6;" d="M113 0v123l379 1188h481v-78h-348v-539h266v-78h-266v-538h348v-78h-430v422h-250l-98 -307v-115h-82zM317 500h226v712z" />
<glyph unicode="&#xc7;" d="M164 340v633q0 172 94.5 265t284.5 93t284.5 -93t94.5 -265v-51h-82v49q0 282 -297 282t-297 -282v-631q0 -283 297 -283t297 283v49h82v-49q0 -314 -295 -354q47 -35 47 -107v-12q0 -61 -33.5 -94t-99.5 -33q-64 0 -96.5 31.5t-32.5 81.5h73q0 -41 56 -41q55 0 55 49v26 q0 47 -55 47h-68v50q-309 34 -309 356z" />
<glyph unicode="&#xc8;" d="M195 0v1311h696v-78h-615v-539h512v-78h-512v-538h615v-78h-696zM418 1604v65h80l168 -205v-57h-41z" />
<glyph unicode="&#xc9;" d="M195 0v1311h696v-78h-615v-539h512v-78h-512v-538h615v-78h-696zM418 1407v57l168 205h80v-65l-207 -197h-41z" />
<glyph unicode="&#xca;" d="M195 0v1311h696v-78h-615v-539h512v-78h-512v-538h615v-78h-696zM303 1407v53l213 209h51l213 -209v-53h-41l-196 170l-199 -170h-41z" />
<glyph unicode="&#xcb;" d="M195 0v1311h696v-78h-615v-539h512v-78h-512v-538h615v-78h-696zM315 1489v127h127v-127h-127zM643 1489v127h127v-127h-127z" />
<glyph unicode="&#xcc;" d="M215 0v78h287v1155h-287v78h655v-78h-286v-1155h286v-78h-655zM418 1604v65h80l168 -205v-57h-41z" />
<glyph unicode="&#xcd;" d="M215 0v78h287v1155h-287v78h655v-78h-286v-1155h286v-78h-655zM418 1407v57l168 205h80v-65l-207 -197h-41z" />
<glyph unicode="&#xce;" d="M215 0v78h287v1155h-287v78h655v-78h-286v-1155h286v-78h-655zM303 1407v53l213 209h51l213 -209v-53h-41l-196 170l-199 -170h-41z" />
<glyph unicode="&#xcf;" d="M215 0v78h287v1155h-287v78h655v-78h-286v-1155h286v-78h-655zM315 1489v127h127v-127h-127zM643 1489v127h127v-127h-127z" />
<glyph unicode="&#xd0;" d="M82 627v78h82v606h379q190 0 284.5 -93.5t94.5 -265.5v-592q0 -174 -94.5 -267t-284.5 -93h-379v627h-82zM246 78h297q297 0 297 282v590q0 283 -297 283h-297v-528h266v-78h-266v-549z" />
<glyph unicode="&#xd1;" d="M164 0v1311h61l615 -1123v1123h82v-1311h-62l-614 1122v-1122h-82zM256 1509q50 125 164 125q39 0 71 -13t74 -42q60 -43 111 -43q60 0 94 72l59 -23q-24 -59 -66 -93t-97 -34q-64 0 -146 55q-36 26 -59 34.5t-51 8.5q-62 0 -95 -71z" />
<glyph unicode="&#xd2;" d="M164 340v633q0 172 94.5 265t284.5 93t284.5 -93t94.5 -265v-633q0 -174 -94.5 -267t-284.5 -93t-284.5 93t-94.5 267zM246 340q0 -283 297 -283t297 283v631q0 282 -297 282t-297 -282v-631zM418 1604v65h80l168 -205v-57h-41z" />
<glyph unicode="&#xd3;" d="M164 340v633q0 172 94.5 265t284.5 93t284.5 -93t94.5 -265v-633q0 -174 -94.5 -267t-284.5 -93t-284.5 93t-94.5 267zM246 340q0 -283 297 -283t297 283v631q0 282 -297 282t-297 -282v-631zM418 1407v57l168 205h80v-65l-207 -197h-41z" />
<glyph unicode="&#xd4;" d="M164 340v633q0 172 94.5 265t284.5 93t284.5 -93t94.5 -265v-633q0 -174 -94.5 -267t-284.5 -93t-284.5 93t-94.5 267zM246 340q0 -283 297 -283t297 283v631q0 282 -297 282t-297 -282v-631zM303 1407v53l213 209h51l213 -209v-53h-41l-196 170l-199 -170h-41z" />
<glyph unicode="&#xd5;" d="M164 340v633q0 172 94.5 265t284.5 93t284.5 -93t94.5 -265v-633q0 -174 -94.5 -267t-284.5 -93t-284.5 93t-94.5 267zM246 340q0 -283 297 -283t297 283v631q0 282 -297 282t-297 -282v-631zM256 1509q50 125 164 125q39 0 71 -13t74 -42q60 -43 111 -43q60 0 94 72 l59 -23q-24 -59 -66 -93t-97 -34q-64 0 -146 55q-36 26 -59 34.5t-51 8.5q-62 0 -95 -71z" />
<glyph unicode="&#xd6;" d="M164 340v633q0 172 94.5 265t284.5 93t284.5 -93t94.5 -265v-633q0 -174 -94.5 -267t-284.5 -93t-284.5 93t-94.5 267zM246 340q0 -283 297 -283t297 283v631q0 282 -297 282t-297 -282v-631zM315 1489v127h127v-127h-127zM643 1489v127h127v-127h-127z" />
<glyph unicode="&#xd7;" d="M213 322l279 278l-279 279l51 51l279 -279l278 279l51 -51l-278 -279l278 -278l-51 -52l-278 279l-279 -279z" />
<glyph unicode="&#xd8;" d="M164 340v633q0 172 94.5 265t284.5 93q73 0 139 -16l16 57h82l-22 -84q164 -84 164 -315v-633q0 -174 -94.5 -267t-284.5 -93q-74 0 -140 16l-16 -57h-82l23 84q-164 84 -164 317zM246 340q0 -166 104 -236l312 1135q-49 14 -119 14q-297 0 -297 -282v-631zM424 72 q52 -15 119 -15q297 0 297 283v631q0 166 -105 235z" />
<glyph unicode="&#xd9;" d="M164 340v971h82v-971q0 -283 297 -283t297 283v971h82v-971q0 -174 -94.5 -267t-284.5 -93t-284.5 93t-94.5 267zM418 1604v65h80l168 -205v-57h-41z" />
<glyph unicode="&#xda;" d="M164 340v971h82v-971q0 -283 297 -283t297 283v971h82v-971q0 -174 -94.5 -267t-284.5 -93t-284.5 93t-94.5 267zM418 1407v57l168 205h80v-65l-207 -197h-41z" />
<glyph unicode="&#xdb;" d="M164 340v971h82v-971q0 -283 297 -283t297 283v971h82v-971q0 -174 -94.5 -267t-284.5 -93t-284.5 93t-94.5 267zM303 1407v53l213 209h51l213 -209v-53h-41l-196 170l-199 -170h-41z" />
<glyph unicode="&#xdc;" d="M164 340v971h82v-971q0 -283 297 -283t297 283v971h82v-971q0 -174 -94.5 -267t-284.5 -93t-284.5 93t-94.5 267zM315 1489v127h127v-127h-127zM643 1489v127h127v-127h-127z" />
<glyph unicode="&#xdd;" d="M143 1147v164h82v-142l318 -530l317 530v142h82v-164l-358 -598v-549h-82v549zM418 1407v57l168 205h80v-65l-207 -197h-41z" />
<glyph unicode="&#xde;" d="M164 0v1311h82v-297h297q191 0 285 -89.5t94 -256.5q0 -168 -94.5 -258.5t-284.5 -90.5h-297v-319h-82zM246 397h297q297 0 297 265v8q0 266 -297 266h-297v-539z" />
<glyph unicode="&#xdf;" d="M174 0v969q0 162 86 252t250 90q173 0 265.5 -91t92.5 -247q0 -213 -166 -283q220 -71 220 -332q0 -184 -94 -281t-275 -97q-88 0 -162 24l19 74q86 -21 143 -21q139 0 213 77.5t74 223.5q0 293 -326 293v70q146 0 209 65.5t63 186.5q0 123 -69.5 191.5t-206.5 68.5 q-124 0 -189 -69t-65 -195v-969h-82z" />
<glyph unicode="&#xe0;" d="M164 254v12q0 125 95 195.5t280 70.5h290v82q0 133 -67.5 202t-198.5 69q-69 0 -124 -17t-87 -43.5t-49.5 -55.5t-19.5 -58h-76q-1 39 21.5 82t64.5 81.5t113 63.5t157 25q172 0 260 -89.5t88 -259.5v-614h-63l-17 125q-46 -67 -136.5 -106t-202.5 -39q-151 0 -239.5 70 t-88.5 204zM246 254q0 -97 68 -147t178 -50q143 0 240 67t97 157v174h-288q-146 0 -220.5 -50.5t-74.5 -138.5v-12zM434 1266v65h80l168 -205v-57h-41z" />
<glyph unicode="&#xe1;" d="M164 254v12q0 125 95 195.5t280 70.5h290v82q0 133 -67.5 202t-198.5 69q-69 0 -124 -17t-87 -43.5t-49.5 -55.5t-19.5 -58h-76q-1 39 21.5 82t64.5 81.5t113 63.5t157 25q172 0 260 -89.5t88 -259.5v-614h-63l-17 125q-46 -67 -136.5 -106t-202.5 -39q-151 0 -239.5 70 t-88.5 204zM246 254q0 -97 68 -147t178 -50q143 0 240 67t97 157v174h-288q-146 0 -220.5 -50.5t-74.5 -138.5v-12zM434 1069v57l168 205h80v-65l-207 -197h-41z" />
<glyph unicode="&#xe2;" d="M164 254v12q0 125 95 195.5t280 70.5h290v82q0 133 -67.5 202t-198.5 69q-69 0 -124 -17t-87 -43.5t-49.5 -55.5t-19.5 -58h-76q-1 39 21.5 82t64.5 81.5t113 63.5t157 25q172 0 260 -89.5t88 -259.5v-614h-63l-17 125q-46 -67 -136.5 -106t-202.5 -39q-151 0 -239.5 70 t-88.5 204zM246 254q0 -97 68 -147t178 -50q143 0 240 67t97 157v174h-288q-146 0 -220.5 -50.5t-74.5 -138.5v-12zM319 1069v53l213 209h52l213 -209v-53h-41l-197 170l-199 -170h-41z" />
<glyph unicode="&#xe3;" d="M164 254v12q0 125 95 195.5t280 70.5h290v82q0 133 -67.5 202t-198.5 69q-69 0 -124 -17t-87 -43.5t-49.5 -55.5t-19.5 -58h-76q-1 39 21.5 82t64.5 81.5t113 63.5t157 25q172 0 260 -89.5t88 -259.5v-614h-63l-17 125q-46 -67 -136.5 -106t-202.5 -39q-151 0 -239.5 70 t-88.5 204zM246 254q0 -97 68 -147t178 -50q143 0 240 67t97 157v174h-288q-146 0 -220.5 -50.5t-74.5 -138.5v-12zM272 1171q50 125 164 125q39 0 71.5 -13.5t74.5 -41.5q60 -43 110 -43q60 0 94 72l60 -23q-24 -59 -66.5 -93t-97.5 -34q-62 0 -145 56q-36 26 -59 34.5 t-52 8.5q-60 0 -94 -72z" />
<glyph unicode="&#xe4;" d="M164 254v12q0 125 95 195.5t280 70.5h290v82q0 133 -67.5 202t-198.5 69q-69 0 -124 -17t-87 -43.5t-49.5 -55.5t-19.5 -58h-76q-1 39 21.5 82t64.5 81.5t113 63.5t157 25q172 0 260 -89.5t88 -259.5v-614h-63l-17 125q-46 -67 -136.5 -106t-202.5 -39q-151 0 -239.5 70 t-88.5 204zM246 254q0 -97 68 -147t178 -50q143 0 240 67t97 157v174h-288q-146 0 -220.5 -50.5t-74.5 -138.5v-12zM332 1151v127h127v-127h-127zM659 1151v127h127v-127h-127z" />
<glyph unicode="&#xe5;" d="M164 254v12q0 125 95 195.5t280 70.5h290v82q0 133 -67.5 202t-198.5 69q-69 0 -124 -17t-87 -43.5t-49.5 -55.5t-19.5 -58h-76q-1 39 21.5 82t64.5 81.5t113 63.5t157 25q172 0 260 -89.5t88 -259.5v-614h-63l-17 125q-46 -67 -136.5 -106t-202.5 -39q-151 0 -239.5 70 t-88.5 204zM246 254q0 -97 68 -147t178 -50q143 0 240 67t97 157v174h-288q-146 0 -220.5 -50.5t-74.5 -138.5v-12zM393 1233q0 69 44.5 116.5t121.5 47.5t121.5 -47.5t44.5 -116.5t-47 -114.5t-119 -45.5q-73 0 -119.5 45.5t-46.5 114.5zM463 1235q0 -40 27.5 -67t68.5 -27 t68.5 27t27.5 67t-26 67t-70 27t-70 -27t-26 -67z" />
<glyph unicode="&#xe6;" horiz-adv-x="1673" d="M164 254v12q0 127 96.5 204.5t278.5 76.5h213v55q0 107 34 182q-61 101 -223 101q-69 0 -124 -17t-87 -43.5t-49.5 -55.5t-19.5 -58h-76q-1 39 21.5 82t64.5 81.5t113 63.5t157 25q189 0 275 -105q94 105 292 105q190 0 284.5 -94t94.5 -267v-133h-675v-129 q0 -135 73.5 -209t222.5 -74q144 0 220.5 67t76.5 165h82q0 -134 -97 -221.5t-282 -87.5q-226 0 -319 135q-45 -59 -130 -97t-189 -38q-151 0 -239.5 70t-88.5 204zM246 254q0 -97 68 -147t178 -50q99 0 174.5 33t113.5 84q-28 69 -28 166v129h-211q-144 0 -219.5 -56.5 t-75.5 -146.5v-12zM834 547h593v65q0 128 -74.5 200.5t-222.5 72.5q-149 0 -222.5 -74t-73.5 -209v-55z" />
<glyph unicode="&#xe7;" d="M164 340v262q0 173 95.5 267t289.5 94q91 0 164 -27t117.5 -71t68 -97t23.5 -109h-82q0 88 -76.5 157t-214.5 69q-153 0 -228 -73.5t-75 -209.5v-262q0 -136 75 -209.5t228 -73.5q138 0 214.5 69t76.5 157h82q0 -105 -77 -190.5t-218 -106.5q47 -35 47 -107v-12 q0 -61 -33.5 -94t-99.5 -33q-64 0 -96.5 31.5t-32.5 81.5h73q0 -41 56 -41q55 0 55 49v26q0 47 -55 47h-68v50q-309 37 -309 356z" />
<glyph unicode="&#xe8;" d="M164 340v262q0 173 94.5 267t284.5 94t284.5 -94t94.5 -267v-133h-676v-129q0 -135 74 -209t223 -74q144 0 220.5 67t76.5 165h82q0 -134 -97 -221.5t-282 -87.5q-190 0 -284.5 93.5t-94.5 266.5zM246 547h594v65q0 128 -74.5 200.5t-222.5 72.5q-149 0 -223 -74 t-74 -209v-55zM418 1266v65h80l168 -205v-57h-41z" />
<glyph unicode="&#xe9;" d="M164 340v262q0 173 94.5 267t284.5 94t284.5 -94t94.5 -267v-133h-676v-129q0 -135 74 -209t223 -74q144 0 220.5 67t76.5 165h82q0 -134 -97 -221.5t-282 -87.5q-190 0 -284.5 93.5t-94.5 266.5zM246 547h594v65q0 128 -74.5 200.5t-222.5 72.5q-149 0 -223 -74 t-74 -209v-55zM418 1069v57l168 205h80v-65l-207 -197h-41z" />
<glyph unicode="&#xea;" d="M164 340v262q0 173 94.5 267t284.5 94t284.5 -94t94.5 -267v-133h-676v-129q0 -135 74 -209t223 -74q144 0 220.5 67t76.5 165h82q0 -134 -97 -221.5t-282 -87.5q-190 0 -284.5 93.5t-94.5 266.5zM246 547h594v65q0 128 -74.5 200.5t-222.5 72.5q-149 0 -223 -74 t-74 -209v-55zM303 1069v53l213 209h51l213 -209v-53h-41l-196 170l-199 -170h-41z" />
<glyph unicode="&#xeb;" d="M164 340v262q0 173 94.5 267t284.5 94t284.5 -94t94.5 -267v-133h-676v-129q0 -135 74 -209t223 -74q144 0 220.5 67t76.5 165h82q0 -134 -97 -221.5t-282 -87.5q-190 0 -284.5 93.5t-94.5 266.5zM246 547h594v65q0 128 -74.5 200.5t-222.5 72.5q-149 0 -223 -74 t-74 -209v-55zM315 1151v127h127v-127h-127zM643 1151v127h127v-127h-127z" />
<glyph unicode="&#xec;" horiz-adv-x="536" d="M143 1266v65h80l168 -205v-57h-41zM227 0v942h82v-942h-82z" />
<glyph unicode="&#xed;" horiz-adv-x="536" d="M143 1069v57l168 205h80v-65l-207 -197h-41zM227 0v942h82v-942h-82z" />
<glyph unicode="&#xee;" horiz-adv-x="536" d="M29 1069v53l213 209h51l213 -209v-53h-41l-197 170l-198 -170h-41zM227 0v942h82v-942h-82z" />
<glyph unicode="&#xef;" horiz-adv-x="536" d="M41 1151v127h127v-127h-127zM227 0v942h82v-942h-82zM369 1151v127h127v-127h-127z" />
<glyph unicode="&#xf0;" d="M164 340v262q0 173 94.5 267t284.5 94q160 0 264 -93q-50 160 -176 254l-205 -96l-31 66l166 77q-90 52 -229 103l22 69q183 -65 289 -135l193 90l30 -65l-155 -74q103 -86 157 -215.5t54 -325.5v-278q0 -173 -94.5 -266.5t-284.5 -93.5t-284.5 93.5t-94.5 266.5z M246 340q0 -135 74 -209t223 -74t223 74t74 209v278q0 62 -6 117q-35 69 -114 109.5t-177 40.5q-149 0 -223 -74t-74 -209v-262z" />
<glyph unicode="&#xf1;" d="M174 0v942h64l18 -147q48 77 137.5 122.5t196.5 45.5q159 0 240 -86t81 -254v-623h-82v623q0 262 -239 262q-141 0 -237.5 -79.5t-96.5 -193.5v-612h-82zM260 1171q50 125 164 125q39 0 71 -13.5t74 -41.5q60 -43 111 -43q60 0 94 72l60 -23q-24 -59 -66.5 -93t-97.5 -34 q-63 0 -146 56q-36 26 -59 34.5t-51 8.5q-61 0 -95 -72z" />
<glyph unicode="&#xf2;" d="M164 340v262q0 173 94.5 267t284.5 94t284.5 -94t94.5 -267v-262q0 -173 -94.5 -266.5t-284.5 -93.5t-284.5 93.5t-94.5 266.5zM246 340q0 -135 74 -209t223 -74t223 74t74 209v262q0 135 -74 209t-223 74t-223 -74t-74 -209v-262zM428 1266v65h80l168 -205v-57h-41z" />
<glyph unicode="&#xf3;" d="M164 340v262q0 173 94.5 267t284.5 94t284.5 -94t94.5 -267v-262q0 -173 -94.5 -266.5t-284.5 -93.5t-284.5 93.5t-94.5 266.5zM246 340q0 -135 74 -209t223 -74t223 74t74 209v262q0 135 -74 209t-223 74t-223 -74t-74 -209v-262zM410 1069v57l168 205h79v-65l-206 -197 h-41z" />
<glyph unicode="&#xf4;" d="M164 340v262q0 173 94.5 267t284.5 94t284.5 -94t94.5 -267v-262q0 -173 -94.5 -266.5t-284.5 -93.5t-284.5 93.5t-94.5 266.5zM246 340q0 -135 74 -209t223 -74t223 74t74 209v262q0 135 -74 209t-223 74t-223 -74t-74 -209v-262zM297 1069v53l213 209h51l213 -209v-53 h-41l-196 170l-199 -170h-41z" />
<glyph unicode="&#xf5;" d="M164 340v262q0 173 94.5 267t284.5 94t284.5 -94t94.5 -267v-262q0 -173 -94.5 -266.5t-284.5 -93.5t-284.5 93.5t-94.5 266.5zM246 340q0 -135 74 -209t223 -74t223 74t74 209v262q0 135 -74 209t-223 74t-223 -74t-74 -209v-262zM256 1171q50 125 164 125 q39 0 71 -13.5t74 -41.5q60 -43 111 -43q60 0 94 72l59 -23q-24 -59 -66 -93t-97 -34q-63 0 -146 56q-36 26 -59 34.5t-51 8.5q-61 0 -95 -72z" />
<glyph unicode="&#xf6;" d="M164 340v262q0 173 94.5 267t284.5 94t284.5 -94t94.5 -267v-262q0 -173 -94.5 -266.5t-284.5 -93.5t-284.5 93.5t-94.5 266.5zM246 340q0 -135 74 -209t223 -74t223 74t74 209v262q0 135 -74 209t-223 74t-223 -74t-74 -209v-262zM315 1151v127h127v-127h-127zM643 1151 v127h127v-127h-127z" />
<glyph unicode="&#xf7;" d="M174 565v70h737v-70h-737zM485 276v115h115v-115h-115zM485 809v115h115v-115h-115z" />
<glyph unicode="&#xf8;" d="M164 340v262q0 173 94.5 267t284.5 94q43 0 94 -7l12 48h82l-18 -66q209 -73 209 -336v-262q0 -173 -94.5 -266.5t-284.5 -93.5q-49 0 -92 6l-13 -47h-82l19 65q-211 72 -211 336zM246 340q0 -197 149 -258l219 797q-35 6 -71 6q-149 0 -223 -74t-74 -209v-262zM473 61 q46 -4 70 -4q149 0 223 74t74 209v262q0 195 -148 256z" />
<glyph unicode="&#xf9;" d="M174 319v623h82v-623q0 -262 240 -262q141 0 237 79.5t96 193.5v612h82v-942h-63l-19 147q-47 -77 -136.5 -122t-196.5 -45q-159 0 -240.5 85.5t-81.5 253.5zM418 1266v65h80l168 -205v-57h-41z" />
<glyph unicode="&#xfa;" d="M174 319v623h82v-623q0 -262 240 -262q141 0 237 79.5t96 193.5v612h82v-942h-63l-19 147q-47 -77 -136.5 -122t-196.5 -45q-159 0 -240.5 85.5t-81.5 253.5zM418 1069v57l168 205h80v-65l-207 -197h-41z" />
<glyph unicode="&#xfb;" d="M174 319v623h82v-623q0 -262 240 -262q141 0 237 79.5t96 193.5v612h82v-942h-63l-19 147q-47 -77 -136.5 -122t-196.5 -45q-159 0 -240.5 85.5t-81.5 253.5zM303 1069v53l213 209h51l213 -209v-53h-41l-196 170l-199 -170h-41z" />
<glyph unicode="&#xfc;" d="M174 319v623h82v-623q0 -262 240 -262q141 0 237 79.5t96 193.5v612h82v-942h-63l-19 147q-47 -77 -136.5 -122t-196.5 -45q-159 0 -240.5 85.5t-81.5 253.5zM315 1151v127h127v-127h-127zM643 1151v127h127v-127h-127z" />
<glyph unicode="&#xfd;" d="M164 819v123h82v-113l299 -723l295 723v113h82v-123l-445 -1065h-80l105 256zM418 1069v57l168 205h80v-65l-207 -197h-41z" />
<glyph unicode="&#xfe;" d="M174 -246v1557h82v-502q45 73 129.5 113.5t185.5 40.5q162 0 256.5 -96.5t94.5 -264.5v-262q0 -168 -94.5 -264t-256.5 -96q-101 0 -185.5 40t-129.5 113v-379h-82zM256 309q0 -112 91 -182t224 -70q121 0 195 76t74 207v262q0 131 -74 207t-195 76q-133 0 -224 -70 t-91 -182v-324z" />
<glyph unicode="&#xff;" d="M164 819v123h82v-113l299 -723l295 723v113h82v-123l-445 -1065h-80l105 256zM315 1151v127h127v-127h-127zM643 1151v127h127v-127h-127z" />
<glyph unicode="&#x152;" d="M164 360v592q0 172 94.5 265.5t284.5 93.5h430v-78h-348v-539h266v-78h-266v-538h348v-78h-430q-190 0 -284.5 93t-94.5 267zM246 360q0 -282 297 -282v1155q-297 0 -297 -283v-590z" />
<glyph unicode="&#x153;" horiz-adv-x="1662" d="M164 340v262q0 173 94.5 267t284.5 94q192 0 288 -99q96 99 289 99q190 0 284.5 -94t94.5 -267v-133h-676v-129q0 -135 74 -209t223 -74q144 0 220.5 67t76.5 165h82q0 -134 -97 -221.5t-282 -87.5q-194 0 -289 98q-98 -98 -288 -98t-284.5 93.5t-94.5 266.5zM246 340 q0 -135 74 -209t223 -74q162 0 239 90q-41 75 -41 193v262q0 118 41 193q-77 90 -239 90q-149 0 -223 -74t-74 -209v-262zM823 547h594v65q0 128 -74.5 200.5t-222.5 72.5q-149 0 -223 -74t-74 -209v-55z" />
<glyph unicode="&#x178;" d="M143 1147v164h82v-142l318 -530l317 530v142h82v-164l-358 -598v-549h-82v549zM315 1489v127h127v-127h-127zM643 1489v127h127v-127h-127z" />
<glyph unicode="&#x2c6;" d="M297 1069v53l213 209h51l213 -209v-53h-41l-196 170l-199 -170h-41z" />
<glyph unicode="&#x2dc;" d="M256 1171q50 125 164 125q39 0 71 -13.5t74 -41.5q60 -43 111 -43q60 0 94 72l59 -23q-24 -59 -66 -93t-97 -34q-63 0 -146 56q-36 26 -59 34.5t-51 8.5q-61 0 -95 -72z" />
<glyph unicode="&#x2000;" horiz-adv-x="867" />
<glyph unicode="&#x2001;" horiz-adv-x="1735" />
<glyph unicode="&#x2002;" horiz-adv-x="867" />
<glyph unicode="&#x2003;" horiz-adv-x="1735" />
<glyph unicode="&#x2004;" horiz-adv-x="578" />
<glyph unicode="&#x2005;" horiz-adv-x="433" />
<glyph unicode="&#x2006;" horiz-adv-x="289" />
<glyph unicode="&#x2007;" horiz-adv-x="289" />
<glyph unicode="&#x2008;" horiz-adv-x="216" />
<glyph unicode="&#x2009;" horiz-adv-x="347" />
<glyph unicode="&#x200a;" horiz-adv-x="96" />
<glyph unicode="&#x2010;" horiz-adv-x="757" d="M143 524v70h471v-70h-471z" />
<glyph unicode="&#x2011;" horiz-adv-x="757" d="M143 524v70h471v-70h-471z" />
<glyph unicode="&#x2012;" horiz-adv-x="757" d="M143 524v70h471v-70h-471z" />
<glyph unicode="&#x2013;" d="M184 524v70h717v-70h-717z" />
<glyph unicode="&#x2014;" horiz-adv-x="2170" d="M184 528v62h1803v-62h-1803z" />
<glyph unicode="&#x2018;" horiz-adv-x="507" d="M184 1040v101l78 211h62l-48 -172h48v-140h-140z" />
<glyph unicode="&#x2019;" horiz-adv-x="507" d="M184 999l47 172h-47v140h140v-101l-78 -211h-62z" />
<glyph unicode="&#x201a;" horiz-adv-x="507" d="M184 0v139h140v-100l-78 -211h-62l47 172h-47z" />
<glyph unicode="&#x201c;" d="M350 1040v101l78 211h61l-47 -172h47v-140h-139zM596 1040v101l78 211h61l-47 -172h47v-140h-139z" />
<glyph unicode="&#x201d;" d="M350 999l47 172h-47v140h139v-101l-77 -211h-62zM596 999l47 172h-47v140h139v-101l-78 -211h-61z" />
<glyph unicode="&#x201e;" d="M350 0v139h139v-100l-77 -211h-62l47 172h-47zM596 0v139h139v-100l-78 -211h-61l47 172h-47z" />
<glyph unicode="&#x2022;" d="M403 582q0 57 41.5 98t98.5 41q58 0 98.5 -41t40.5 -98q0 -59 -40.5 -99.5t-98.5 -40.5q-57 0 -98.5 41t-41.5 99z" />
<glyph unicode="&#x2026;" d="M176 0v139h139v-139h-139zM473 0v139h139v-139h-139zM770 0v139h139v-139h-139z" />
<glyph unicode="&#x202f;" horiz-adv-x="347" />
<glyph unicode="&#x2039;" horiz-adv-x="718" d="M143 520l338 457l64 -47l-299 -410l299 -409l-64 -48z" />
<glyph unicode="&#x203a;" horiz-adv-x="718" d="M174 111l299 409l-299 410l64 47l337 -457l-337 -457z" />
<glyph unicode="&#x205f;" horiz-adv-x="433" />
<glyph unicode="&#x20ac;" d="M82 514v74h82v135h-82v74h82v176q0 172 94.5 265t284.5 93t284.5 -93t94.5 -265v-51h-82v49q0 282 -297 282t-297 -282v-174h413l-16 -74h-397v-135h368l-16 -74h-352v-174q0 -283 297 -283t297 283v49h82v-49q0 -174 -94.5 -267t-284.5 -93t-284.5 93t-94.5 267v174h-82 z" />
<glyph unicode="&#x2122;" d="M90 1245v66h422v-66h-174v-508h-72v508h-176zM578 737v574h53l141 -291l143 291h52v-574h-72v404l-100 -201h-45l-101 201v-404h-71z" />
<glyph unicode="&#x25fc;" horiz-adv-x="942" d="M0 0v942h942v-942h-942z" />
</font>
</defs>
</svg>
