<?xml version="1.0" standalone="no"?>
<!DOCTYPE svg PUBLIC "-//W3C//DTD SVG 1.1//EN" "http://www.w3.org/Graphics/SVG/1.1/DTD/svg11.dtd" >
<svg xmlns="http://www.w3.org/2000/svg">
<metadata></metadata>
<defs>
<font id="realtime_textblack" horiz-adv-x="1085" >
<font-face units-per-em="2048" ascent="1638" descent="-410" />
<missing-glyph horiz-adv-x="696" />
<glyph horiz-adv-x="0" />
<glyph horiz-adv-x="682" />
<glyph unicode=" "  horiz-adv-x="696" />
<glyph unicode="&#x09;" horiz-adv-x="696" />
<glyph unicode="&#xa0;" horiz-adv-x="696" />
<glyph unicode="!" horiz-adv-x="651" d="M174 0v303h303v-303h-303zM203 836v475h246v-475l-31 -308h-185z" />
<glyph unicode="&#x22;" d="M246 1311h246l-35 -572h-176zM594 1311h246l-35 -572h-176z" />
<glyph unicode="#" d="M90 348v182h127l45 250h-110v183h141l61 348h207l-61 -348h192l62 348h207l-62 -348h98v-183h-129l-45 -250h113v-182h-143l-62 -348h-207l62 348h-193l-61 -348h-207l61 348h-96zM424 530h192l43 250h-192z" />
<glyph unicode="$" d="M133 379h246q0 -129 92 -162v340q-45 21 -69.5 33t-66 36t-65 43.5t-53.5 51t-45.5 63.5t-27 75.5t-11.5 92.5q0 163 87 260.5t251 114.5v117h143v-117q163 -19 250.5 -122t87.5 -273h-245q0 128 -93 162v-340q45 -21 69.5 -33t65.5 -36t65 -44t54 -51t45.5 -63.5t27 -76 t11.5 -92.5q0 -163 -87 -260t-251 -114v-117h-143v117q-163 19 -250.5 122t-87.5 273zM379 973q0 -82 92 -144v269q-92 -27 -92 -125zM614 213q93 27 93 125q0 80 -93 143v-268z" />
<glyph unicode="%" d="M113 791v77q0 94 51.5 145.5t154.5 51.5q104 0 155.5 -51.5t51.5 -145.5v-77q0 -94 -51.5 -145.5t-155.5 -51.5q-103 0 -154.5 51t-51.5 146zM129 37l750 1028l86 -61l-750 -1029zM246 778q0 -61 73 -61q74 0 74 61v103q0 63 -74 63q-73 0 -73 -63v-103zM569 186v78 q0 94 51.5 145.5t155.5 51.5t155.5 -51.5t51.5 -145.5v-78q0 -94 -51.5 -145t-155.5 -51t-155.5 51t-51.5 145zM702 174q0 -61 74 -61t74 61v102q0 64 -74 64t-74 -64v-102z" />
<glyph unicode="&#x26;" d="M133 369v82q0 257 182 346q-69 145 -69 270q0 137 81.5 221t235.5 84q124 0 260 -90l-92 -170q-91 47 -151 47q-115 0 -115 -117q0 -50 19 -102t65 -131l205 -346q20 85 20 168h189q0 -227 -80 -387l90 -154v-90h-195l-39 66q-109 -86 -258 -86q-163 0 -255.5 103 t-92.5 286zM371 340q0 -73 41 -108t100 -35q66 0 121 49l-207 354q-55 -38 -55 -119v-141z" />
<glyph unicode="'" horiz-adv-x="593" d="M174 1311h246l-35 -572h-176z" />
<glyph unicode="(" d="M305 596q0 246 85 472.5t239 404.5l180 -148q-236 -319 -236 -729t236 -729l-180 -148q-154 178 -239 404.5t-85 472.5z" />
<glyph unicode=")" d="M276 -133q236 319 236 729t-236 729l181 148q153 -178 238 -404t85 -473t-85 -473t-238 -404z" />
<glyph unicode="*" d="M176 1067l57 176l246 -92l-12 262h184l-12 -262l246 92l57 -176l-252 -70l162 -204l-147 -109l-146 219l-145 -219l-148 109l162 204z" />
<glyph unicode="+" d="M154 510v180h299v299h180v-299h299v-180h-299v-299h-180v299h-299z" />
<glyph unicode="," horiz-adv-x="651" d="M174 0v303h303v-219l-143 -371h-141l81 287h-100z" />
<glyph unicode="-" horiz-adv-x="778" d="M143 459v200h492v-200h-492z" />
<glyph unicode="." horiz-adv-x="651" d="M174 0v303h303v-303h-303z" />
<glyph unicode="/" d="M223 -61l393 1433h246l-393 -1433h-246z" />
<glyph unicode="0" d="M123 369v573q0 187 102 288t307 101t307.5 -101t102.5 -288v-573q0 -187 -102.5 -288t-307.5 -101t-307 101t-102 288zM369 348q0 -143 163 -143q164 0 164 143v615q0 143 -164 143q-163 0 -163 -143v-615z" />
<glyph unicode="1" d="M135 1110l348 201h183v-1086h225v-225h-696v225h225v776l-172 -88z" />
<glyph unicode="2" d="M133 0v338l463 410q68 59 89.5 99t21.5 95q0 95 -41 129.5t-123 34.5q-164 0 -164 -143v-76h-246v55q0 187 102.5 288t307.5 101t307 -101t102 -288q0 -99 -38 -174t-140 -164l-405 -354v-25h571v-225h-807z" />
<glyph unicode="3" d="M133 369v34h246v-55q0 -143 164 -143t164 143v41q0 93 -48 135.5t-147 42.5h-61v185h61q101 0 148 39t47 131v41q0 143 -164 143t-164 -143v-56h-246v35q0 187 102.5 288t307.5 101t307 -101t102 -288q0 -204 -129 -287q129 -83 129 -286q0 -187 -102 -288t-307 -101 t-307.5 101t-102.5 288z" />
<glyph unicode="4" d="M102 254v227l385 830h277l-385 -832h205v279h245v-279h154v-225h-154v-254h-245v254h-482z" />
<glyph unicode="5" d="M133 338h246q0 -133 164 -133t164 143v170q0 144 -164 144q-71 0 -119 -30t-70 -77l-213 35l41 721h738v-226h-525l-14 -239q87 41 186 41q180 0 282.5 -103t102.5 -286v-129q0 -187 -102 -288t-307 -101q-201 0 -305.5 99t-104.5 259z" />
<glyph unicode="6" d="M133 369v573q0 186 102 287.5t304 101.5q197 0 298 -100t101 -279h-246q0 154 -153 154q-160 0 -160 -143v-164q80 47 194 47q184 0 281.5 -102t97.5 -287v-88q0 -187 -102 -288t-307 -101t-307.5 101t-102.5 288zM379 348q0 -143 164 -143t164 143v129q0 144 -160 144 q-168 0 -168 -162v-111z" />
<glyph unicode="7" d="M143 973v338h799v-328l-434 -983h-248l436 977v108h-317v-112h-236z" />
<glyph unicode="8" d="M119 369q0 217 147 299q-121 83 -121 274q0 185 102 287t296 102t295.5 -102t101.5 -287q0 -191 -121 -274q148 -83 148 -299q0 -186 -107.5 -287.5t-316.5 -101.5t-316.5 101.5t-107.5 287.5zM365 360q0 -72 49 -113.5t129 -41.5t129 41.5t49 113.5v41q0 83 -48.5 125.5 t-129.5 42.5t-129.5 -42.5t-48.5 -125.5v-41zM391 918q0 -78 40 -117t112 -39t111.5 39t39.5 117v40q0 70 -40 109t-111 39t-111.5 -39t-40.5 -109v-40z" />
<glyph unicode="9" d="M133 854v88q0 187 102.5 288t307.5 101t307 -101t102 -288v-573q0 -187 -101.5 -288t-303.5 -101q-197 0 -298.5 99.5t-101.5 278.5h246q0 -153 154 -153q160 0 160 143v164q-80 -47 -195 -47q-184 0 -281.5 102t-97.5 287zM379 834q0 -144 160 -144q168 0 168 162v111 q0 143 -164 143t-164 -143v-129z" />
<glyph unicode=":" horiz-adv-x="651" d="M174 0v303h303v-303h-303zM174 639v303h303v-303h-303z" />
<glyph unicode=";" horiz-adv-x="651" d="M174 0v303h303v-219l-143 -371h-141l81 287h-100zM174 639v303h303v-303h-303z" />
<glyph unicode="&#x3c;" d="M154 528v144l778 297v-193l-463 -176l463 -176v-193z" />
<glyph unicode="=" d="M154 346v180h778v-180h-778zM154 674v180h778v-180h-778z" />
<glyph unicode="&#x3e;" d="M154 231v193l462 176l-462 176v193l778 -297v-144z" />
<glyph unicode="?" d="M133 897v45q0 187 102.5 288t307.5 101t307 -101t102 -288v-31q0 -158 -73 -255.5t-220 -123.5l-4 -92h-225l-10 299h123q164 0 164 144v80q0 143 -164 143t-164 -143v-66h-246zM391 0v303h303v-303h-303z" />
<glyph unicode="@" d="M113 369v491q0 188 105.5 288.5t324.5 100.5t324.5 -100.5t105.5 -288.5v-522h-164l-10 43q-64 -64 -170 -64t-178 72.5t-72 183.5v7q0 280 305 280h84v21q0 81 -51.5 127.5t-153.5 46.5q-119 0 -182.5 -47t-63.5 -127v-533q0 -174 232 -174q77 0 143.5 16t155.5 58 l76 -164q-189 -104 -381 -104q-219 0 -324.5 100.5t-105.5 288.5zM573 590q0 -42 27 -65t62 -23q41 0 73.5 25.5t32.5 76.5v84h-86q-46 0 -77.5 -23.5t-31.5 -66.5v-8z" />
<glyph unicode="A" d="M123 0v184l256 1127h328l256 -1127v-184h-246v193l-33 155h-283l-32 -155v-193h-246zM446 573h193l-96 467z" />
<glyph unicode="B" d="M133 0v1311h379q205 0 307.5 -101t102.5 -288q0 -167 -97 -254q127 -87 127 -279q0 -187 -102 -288t-307 -101h-410zM379 225h164q164 0 164 144v41q0 143 -164 143h-164v-328zM379 758h133q164 0 164 143v41q0 143 -164 143h-133v-327z" />
<glyph unicode="C" d="M133 369v573q0 187 102.5 288t307.5 101t307 -101t102 -288v-55h-245v76q0 143 -164 143t-164 -143v-615q0 -143 164 -143t164 143v76h245v-55q0 -187 -102 -288t-307 -101t-307.5 101t-102.5 288z" />
<glyph unicode="D" d="M133 0v1311h410q205 0 307 -101t102 -288v-533q0 -187 -102 -288t-307 -101h-410zM379 225h164q164 0 164 144v573q0 143 -164 143h-164v-860z" />
<glyph unicode="E" d="M174 0v1311h737v-226h-491v-317h389v-225h-389v-318h491v-225h-737z" />
<glyph unicode="F" d="M174 0v1311h737v-226h-491v-317h389v-225h-389v-543h-246z" />
<glyph unicode="G" d="M133 369v573q0 187 102.5 288t307.5 101t307 -101t102 -288v-35h-245v56q0 143 -164 143t-164 -143v-615q0 -143 164 -143t164 143v103h-164v225h409v-307q0 -187 -102 -288t-307 -101t-307.5 101t-102.5 288z" />
<glyph unicode="H" d="M133 0v1311h246v-533h328v533h245v-1311h-245v553h-328v-553h-246z" />
<glyph unicode="I" d="M195 0v225h225v860h-225v226h696v-226h-225v-860h225v-225h-696z" />
<glyph unicode="J" d="M133 369v34h246v-55q0 -143 164 -143t164 143v737h-431v226h676v-942q0 -187 -102 -288t-307 -101t-307.5 101t-102.5 288z" />
<glyph unicode="K" horiz-adv-x="1089" d="M133 0v1311h246v-533h102l260 533h211v-113l-266 -532l266 -533v-133h-202l-271 553h-100v-553h-246z" />
<glyph unicode="L" horiz-adv-x="1044" d="M174 0v1311h246v-1086h491v-225h-737z" />
<glyph unicode="M" d="M133 0v1311h178l232 -490l231 490h178v-1311h-245v756l-115 -226h-100l-113 222v-752h-246z" />
<glyph unicode="N" d="M133 0v1311h184l390 -783v783h245v-1311h-184l-389 782v-782h-246z" />
<glyph unicode="O" d="M133 369v573q0 187 102.5 288t307.5 101t307 -101t102 -288v-573q0 -187 -102 -288t-307 -101t-307.5 101t-102.5 288zM379 348q0 -143 164 -143t164 143v615q0 143 -164 143t-164 -143v-615z" />
<glyph unicode="P" d="M133 0v1311h410q205 0 307 -101t102 -288t-102 -288.5t-307 -101.5h-164v-532h-246zM379 758h164q164 0 164 143v41q0 143 -164 143h-164v-327z" />
<glyph unicode="Q" d="M123 369v573q0 187 102 288t307 101t307.5 -101t102.5 -288v-573q0 -167 -81.5 -266t-246.5 -119v-148h-143v146q-174 15 -261 115t-87 272zM369 348q0 -114 102 -137v137h143v-131q82 29 82 131v615q0 143 -164 143q-163 0 -163 -143v-615z" />
<glyph unicode="R" d="M133 0v1311h410q205 0 307 -101t102 -288q0 -260 -188 -347l188 -473v-102h-225l-203 532h-145v-532h-246zM379 758h164q164 0 164 143v41q0 143 -164 143h-164v-327z" />
<glyph unicode="S" d="M133 379h246q0 -91 45.5 -132.5t122.5 -41.5t118.5 35t41.5 98q0 50 -31.5 89.5t-82.5 67.5t-112 55.5t-122 62t-112 77t-82.5 110t-31.5 152.5q0 181 106.5 280t303.5 99t303 -105t106 -294h-245q0 91 -45.5 132.5t-122.5 41.5t-118.5 -35t-41.5 -98q0 -50 31.5 -89.5 t82 -68t112 -56t122.5 -62t111.5 -77t82 -110t31.5 -152.5q0 -181 -106 -279.5t-303 -98.5t-303.5 105t-106.5 294z" />
<glyph unicode="T" horiz-adv-x="1044" d="M113 1085v226h819v-226h-287v-1085h-246v1085h-286z" />
<glyph unicode="U" d="M133 369v942h246v-963q0 -143 164 -143t164 143v963h245v-942q0 -187 -102 -288t-307 -101t-307.5 101t-102.5 288z" />
<glyph unicode="V" d="M123 1126v185h246v-193l174 -848l174 848v193h246v-185l-256 -1126h-328z" />
<glyph unicode="W" d="M104 1311h234l57 -779l105 248h84l104 -252l60 783h233l-82 -1311h-188l-168 453l-168 -453h-189z" />
<glyph unicode="X" d="M133 0v133l266 533l-266 532v113h211l199 -434l198 434h211v-113l-266 -532l266 -533v-133h-202l-207 455l-207 -455h-203z" />
<glyph unicode="Y" d="M133 1044v267h246v-224l164 -350l164 350v224h245v-267l-286 -555v-489h-246v489z" />
<glyph unicode="Z" d="M143 0v328l564 698v59h-564v226h799v-328l-563 -698v-60h563v-225h-799z" />
<glyph unicode="[" d="M317 -215v1638h512v-225h-266v-1188h266v-225h-512z" />
<glyph unicode="\" d="M223 1372h246l393 -1433h-246z" />
<glyph unicode="]" d="M256 10h266v1188h-266v225h512v-1638h-512v225z" />
<glyph unicode="^" d="M176 631l301 680h129l303 -680h-209l-157 362l-156 -362h-211z" />
<glyph unicode="_" d="M-10 -145h1106v-142h-1106v142z" />
<glyph unicode="`" d="M352 1264v67h232l137 -194v-68h-170z" />
<glyph unicode="a" d="M133 256v6q0 142 99.5 211.5t277.5 69.5h186v69q0 72 -38 109t-109 37q-66 0 -104.5 -24.5t-47.5 -67.5h-221q0 52 23.5 103t69 95t124.5 71.5t180 27.5q173 0 271 -100.5t98 -270.5v-592h-205l-16 80q-108 -100 -266 -100q-150 0 -236 74t-86 202zM369 272 q0 -43 30 -65.5t82 -22.5q79 0 147 38t68 85v64h-188q-139 0 -139 -90v-9z" />
<glyph unicode="b" d="M143 0v1311h246v-428q93 80 219 80q150 0 247 -92.5t97 -266.5v-266q0 -174 -96 -266t-246 -92q-149 0 -245 104l-17 -84h-205zM389 369q0 -82 50 -123t122 -41q61 0 103.5 39.5t42.5 113.5v226q0 74 -42.5 113.5t-103.5 39.5q-72 0 -122 -41t-50 -123v-204z" />
<glyph unicode="c" d="M133 369v204q0 187 102.5 288.5t307.5 101.5q201 0 305 -95.5t104 -249.5h-245q0 58 -44 88.5t-120 30.5q-164 0 -164 -143v-246q0 -143 164 -143q76 0 120 30.5t44 88.5h245q0 -154 -104 -249t-305 -95q-205 0 -307.5 101t-102.5 288z" />
<glyph unicode="d" d="M133 338v266q0 174 97 266.5t247 92.5q126 0 219 -80v428h246v-1311h-205l-16 84q-96 -104 -246 -104t-246 92t-96 266zM379 358q0 -74 42 -113.5t103 -39.5q72 0 122 41t50 123v204q0 82 -50 123t-122 41q-61 0 -103 -39.5t-42 -113.5v-226z" />
<glyph unicode="e" d="M133 369v204q0 187 102.5 288.5t307.5 101.5q204 0 306.5 -99.5t102.5 -279.5v-154h-573v-92q0 -143 164 -143q74 0 119 27t45 69h245q0 -55 -25.5 -109t-73.5 -100t-129 -74t-181 -28q-205 0 -307.5 101t-102.5 288zM379 575h328v29q0 144 -164 144t-164 -144v-29z" />
<glyph unicode="f" horiz-adv-x="835" d="M92 717v225h168v90q0 160 84.5 250t239.5 90q112 0 231 -61l-78 -174q-62 32 -131 32q-47 0 -73.5 -30t-26.5 -84v-113h215v-225h-215v-717h-246v717h-168z" />
<glyph unicode="g" d="M133 502v102q0 174 97 266.5t247 92.5q149 0 244 -103l16 82h205v-819q0 -186 -99 -287.5t-290 -101.5q-183 0 -281 95t-98 232h246q0 -53 36 -82.5t97 -29.5q65 0 104 34.5t39 108.5v131q-93 -80 -221 -80q-150 0 -246 92.5t-96 266.5zM379 522q0 -74 42 -113.5 t103 -39.5q72 0 122 40.5t50 122.5v41q0 82 -50 123t-122 41q-61 0 -103 -39.5t-42 -113.5v-62z" />
<glyph unicode="h" d="M143 0v1311h246v-432q96 84 238 84q144 0 229.5 -85.5t85.5 -252.5v-625h-246v604q0 133 -125 133q-77 0 -129.5 -46t-52.5 -159v-532h-246z" />
<glyph unicode="i" horiz-adv-x="593" d="M164 1065v266h266v-266h-266zM174 0v942h246v-942h-246z" />
<glyph unicode="j" horiz-adv-x="671" d="M-51 -242l61 181q79 -27 135 -27q107 0 107 141v889h246v-858q0 -172 -81.5 -271.5t-232.5 -99.5q-118 0 -235 45zM242 1065v266h266v-266h-266z" />
<glyph unicode="k" d="M133 0v1311h246v-717h92l281 348h200v-98l-286 -363l286 -362v-119h-192l-291 369h-90v-369h-246z" />
<glyph unicode="l" horiz-adv-x="593" d="M174 0v1311h246v-1311h-246z" />
<glyph unicode="m" horiz-adv-x="1617" d="M154 0v942h204l17 -86q101 107 252 107q180 0 258 -136q100 136 274 136q137 0 221 -85.5t84 -252.5v-625h-245v604q0 67 -31.5 100t-83.5 33q-31 0 -59.5 -11t-54.5 -34t-42 -67t-16 -103v-522h-246v604q0 67 -31.5 100t-83.5 33q-31 0 -59.5 -11t-54.5 -34t-42 -67 t-16 -103v-522h-245z" />
<glyph unicode="n" d="M143 0v942h205l17 -86q104 107 262 107q144 0 229.5 -85.5t85.5 -252.5v-625h-246v604q0 133 -125 133q-77 0 -129.5 -46t-52.5 -159v-532h-246z" />
<glyph unicode="o" d="M133 369v204q0 187 102.5 288.5t307.5 101.5t307 -101.5t102 -288.5v-204q0 -187 -102 -288t-307 -101t-307.5 101t-102.5 288zM379 348q0 -143 164 -143t164 143v246q0 143 -164 143t-164 -143v-246z" />
<glyph unicode="p" d="M143 -246v1188h205l17 -82q95 103 243 103q150 0 247 -92.5t97 -266.5v-266q0 -174 -96 -266t-246 -92q-130 0 -221 79v-305h-246zM389 369q0 -82 50 -123t122 -41q61 0 103.5 39.5t42.5 113.5v226q0 74 -42.5 113.5t-103.5 39.5q-72 0 -122 -41t-50 -123v-204z" />
<glyph unicode="q" d="M133 338v266q0 174 97 266.5t247 92.5q149 0 244 -103l16 82h205v-1188h-246v305q-91 -79 -221 -79q-150 0 -246 92t-96 266zM379 358q0 -74 42 -113.5t103 -39.5q72 0 122 41t50 123v204q0 82 -50 123t-122 41q-61 0 -103 -39.5t-42 -113.5v-226z" />
<glyph unicode="r" horiz-adv-x="739" d="M143 0v942h205l23 -108q99 129 307 129v-232q-158 0 -223.5 -55.5t-65.5 -169.5v-506h-246z" />
<glyph unicode="s" d="M154 301h245q6 -47 48.5 -74.5t111.5 -27.5q57 0 94 19t37 56q0 41 -45 62t-135 37q-43 8 -69.5 13.5t-68.5 18t-68.5 26t-58 36t-49 49.5t-30 66t-12.5 86q0 131 104.5 213t284.5 82q179 0 284 -91t105 -231h-246q-6 47 -48.5 74.5t-111.5 27.5q-57 0 -94 -19t-37 -56 q0 -41 45 -62t135 -37q43 -8 69.5 -13.5t68.5 -18t68.5 -26t58 -36t49.5 -49.5t30.5 -66t12.5 -86q0 -131 -104.5 -212.5t-284.5 -81.5q-179 0 -284 90.5t-105 230.5z" />
<glyph unicode="t" horiz-adv-x="835" d="M68 717v225h168v195l245 51v-246h215v-225h-215v-420q0 -54 27 -84.5t74 -30.5q67 0 131 33l78 -174q-119 -61 -232 -61q-155 0 -239 89.5t-84 249.5v398h-168z" />
<glyph unicode="u" d="M143 317v625h246v-604q0 -133 125 -133q77 0 129.5 46t52.5 159v532h246v-942h-205l-16 86q-103 -106 -262 -106q-144 0 -230 85t-86 252z" />
<glyph unicode="v" d="M113 758v184h245v-164l185 -532l184 532v164h246v-184l-287 -758h-287z" />
<glyph unicode="w" horiz-adv-x="1361" d="M102 942h236l111 -631l190 490h84l190 -490l111 631h236l-175 -942h-241l-162 408l-164 -408h-242z" />
<glyph unicode="x" d="M133 0v119l264 362l-264 363v98h207l203 -297l202 297h207v-98l-264 -363l264 -362v-119h-198l-211 313l-211 -313h-199z" />
<glyph unicode="y" d="M113 758v184h245v-180l185 -481l184 481v180h246v-184l-424 -1004h-219l98 250z" />
<glyph unicode="z" d="M158 0v295l532 422h-532v225h770v-295l-533 -422h533v-225h-770z" />
<glyph unicode="{" d="M184 492v210q72 3 121 16t74 35t35 46t10 55q0 48 -4 133t-4 135q0 81 19.5 136t71 97.5t146 62.5t238.5 20v-221q-103 0 -154.5 -13.5t-66.5 -38t-15 -73.5q0 -45 1 -131.5t1 -137.5q0 -72 -41 -134.5t-114 -90.5q73 -30 114 -92t41 -133q0 -52 -1 -139t-1 -132 q0 -49 15 -73.5t66.5 -38t154.5 -13.5v-221q-144 0 -238.5 20t-146 62.5t-71 97.5t-19.5 136q0 51 4 136.5t4 131.5q0 31 -10 55t-35 46t-74 35t-121 16z" />
<glyph unicode="|" d="M440 -246v1802h205v-1802h-205z" />
<glyph unicode="}" d="M195 -23q103 0 154 13.5t66 38t15 73.5q0 45 -1 132t-1 139q0 71 41.5 133t114.5 92q-73 28 -114.5 91t-41.5 134q0 51 1 137.5t1 131.5q0 49 -15 73.5t-66 38t-154 13.5v221q144 0 238.5 -20t146 -62.5t71 -97.5t19.5 -136q0 -50 -4 -135t-4 -133q0 -31 10 -55t34.5 -46 t73.5 -35t121 -16v-210q-72 -3 -121 -16t-73.5 -35t-34.5 -46t-10 -55q0 -46 4 -131.5t4 -136.5q0 -81 -19.5 -136t-71 -97.5t-146 -62.5t-238.5 -20v221z" />
<glyph unicode="~" d="M145 487q0 133 52 206t151 73q41 0 86.5 -14t71.5 -27t80 -43q37 -21 55.5 -30.5t42.5 -18t41 -8.5q61 0 68 92h147q0 -133 -52 -206t-151 -73q-40 0 -84 13t-73 27.5t-80 43.5q-100 58 -140 58q-58 0 -65 -93h-150z" />
<glyph unicode="&#xa1;" horiz-adv-x="651" d="M174 639v303h303v-303h-303zM203 106l30 308h185l31 -308v-475h-246v475z" />
<glyph unicode="&#xa2;" d="M133 369v204q0 169 84.5 268.5t253.5 116.5v117h143v-117q166 -17 252 -109.5t86 -230.5h-245q0 85 -93 111v-516q93 26 93 111h245q0 -138 -86 -230.5t-252 -109.5v-117h-143v117q-169 17 -253.5 116.5t-84.5 268.5zM379 348q0 -109 92 -135v516q-92 -26 -92 -135v-246z " />
<glyph unicode="&#xa3;" d="M154 0v174q51 62 88.5 148.5t44.5 185.5h-113v143h105q-8 38 -28 99.5t-33 117.5t-13 115q0 147 97 247.5t261 100.5q168 0 262.5 -99.5t94.5 -268.5h-244q0 74 -31 108.5t-82 34.5q-49 0 -80.5 -35t-31.5 -100q0 -56 27.5 -158.5t35.5 -161.5h254v-143h-250 q-8 -151 -88 -283h502v-225h-778z" />
<glyph unicode="&#xa4;" d="M121 256l123 121q-45 79 -45 172t45 172l-123 121l129 129l123 -125q71 41 170 41t170 -41l123 125l129 -129l-123 -121q45 -79 45 -172t-45 -172l123 -121l-129 -129l-123 125q-71 -41 -170 -41t-170 41l-123 -125zM385 549q0 -73 45.5 -116.5t112.5 -43.5t112 43.5 t45 116.5t-45 116.5t-112 43.5t-112.5 -43.5t-45.5 -116.5z" />
<glyph unicode="&#xa5;" d="M133 1044v267h246v-224l164 -350l164 350v224h245v-267l-104 -200h84v-144h-158l-45 -90h203v-143h-266v-467h-246v467h-266v143h202l-45 90h-157v144h84z" />
<glyph unicode="&#xa6;" d="M440 -246v707h205v-707h-205zM440 850v706h205v-706h-205z" />
<glyph unicode="&#xa7;" d="M133 580q0 153 119 231q-82 79 -82 199q0 152 99 236.5t274 84.5q173 0 272.5 -90t99.5 -242h-245q0 117 -131 117q-123 0 -123 -102q0 -38 29.5 -67.5t77 -51t104.5 -43.5t114 -52t104.5 -68.5t77 -102t29.5 -144.5q0 -154 -121 -231q84 -77 84 -199 q0 -152 -98.5 -236.5t-273.5 -84.5q-173 0 -273 90t-100 242h246q0 -117 131 -117q123 0 123 102q0 38 -29.5 67.5t-77 51t-104.5 43.5t-114.5 52t-105 68.5t-77 102t-29.5 144.5zM379 575q0 -35 17.5 -63.5t50.5 -50.5t69 -39.5t85 -37.5q21 -8 32 -13q74 35 74 118 q0 35 -17 63.5t-53 52t-68.5 39t-86.5 38.5q-19 8 -29 12q-74 -35 -74 -119z" />
<glyph unicode="&#xa8;" d="M248 1090v221h221v-221h-221zM616 1090v221h222v-221h-222z" />
<glyph unicode="&#xa9;" d="M113 696q0 178 126 303t304 125q179 0 304.5 -125t125.5 -303q0 -177 -126 -302.5t-304 -125.5q-177 0 -303.5 125.5t-126.5 302.5zM236 696q0 -127 91 -218t216 -91q126 0 216.5 91t90.5 218t-90.5 218.5t-216.5 91.5q-125 0 -216 -91.5t-91 -218.5zM369 657v78 q0 86 40.5 126t133.5 40q174 0 174 -149h-113q0 45 -61 45q-62 0 -62 -54v-94q0 -53 62 -53q61 0 61 45h113q0 -149 -174 -149q-93 0 -133.5 39.5t-40.5 125.5z" />
<glyph unicode="&#xaa;" d="M244 838v2q0 102 70 150t194 48h117v47q0 84 -88 84q-74 0 -88 -53h-175q0 84 72 149.5t211 65.5q122 0 192 -71t70 -191v-412h-164l-10 52q-72 -66 -178 -66q-104 0 -163.5 53t-59.5 142zM430 850q0 -45 59 -45q47 0 91.5 22.5t44.5 49.5v28h-119q-76 0 -76 -49v-6z" />
<glyph unicode="&#xab;" d="M121 520l250 426l188 -100l-180 -326l180 -325l-188 -101zM510 520l235 404l191 -101l-168 -303l168 -303l-191 -100z" />
<glyph unicode="&#xac;" d="M154 510v180h778v-385h-150v205h-628z" />
<glyph unicode="&#xad;" horiz-adv-x="778" d="M143 459v200h492v-200h-492z" />
<glyph unicode="&#xae;" d="M113 696q0 178 126 303t304 125q179 0 304.5 -125t125.5 -303q0 -177 -126 -302.5t-304 -125.5q-177 0 -303.5 125.5t-126.5 302.5zM236 696q0 -127 91 -218t216 -91q126 0 216.5 91t90.5 218t-90.5 218.5t-216.5 91.5q-125 0 -216 -91.5t-91 -218.5zM403 498v397h134 q76 0 114.5 -36.5t38.5 -102.5q0 -77 -55 -111l47 -88v-59h-76l-59 123h-10h-41v-123h-93zM496 705h41q61 0 61 47v6q0 53 -61 53h-41v-106z" />
<glyph unicode="&#xaf;" d="M297 1092v168h491v-168h-491z" />
<glyph unicode="&#xb0;" d="M276 1085q0 110 79 188.5t188 78.5q110 0 188 -78.5t78 -188.5q0 -109 -78 -187.5t-188 -78.5q-109 0 -188 78.5t-79 187.5zM440 1085q0 -43 30 -72.5t73 -29.5t72.5 29.5t29.5 72.5t-29.5 73t-72.5 30t-73 -30t-30 -73z" />
<glyph unicode="&#xb1;" d="M154 162v180h778v-180h-778zM154 674v180h299v258h180v-258h299v-180h-299v-258h-180v258h-299z" />
<glyph unicode="&#xb4;" d="M365 1069v68l137 194h231v-67l-198 -195h-170z" />
<glyph unicode="&#xb5;" d="M143 -246v1188h246v-604q0 -133 125 -133q77 0 129.5 46t52.5 159v532h246v-942h-205l-16 86q-103 -106 -262 -106q-35 0 -70 6v-232h-246z" />
<glyph unicode="&#xb6;" d="M133 973q0 162 89 250t267 88h463v-1557h-164v1393h-135v-1393h-164v881q-178 0 -267 87.5t-89 250.5z" />
<glyph unicode="&#xb7;" horiz-adv-x="651" d="M174 410v303h303v-303h-303z" />
<glyph unicode="&#xb8;" d="M393 -145h111q0 -27 39 -27q37 0 37 35v24q0 31 -37 31h-66v109h66q149 0 149 -136v-28q0 -139 -149 -139q-76 0 -113 34.5t-37 96.5z" />
<glyph unicode="&#xba;" d="M252 920v135q0 133 72.5 204.5t218.5 71.5t218.5 -71.5t72.5 -204.5v-135q0 -133 -72.5 -205t-218.5 -72t-218.5 72t-72.5 205zM446 903q0 -82 97 -82q96 0 96 82v168q0 82 -96 82q-97 0 -97 -82v-168z" />
<glyph unicode="&#xbb;" d="M150 217l167 303l-167 303l190 101l235 -404l-235 -403zM526 195l181 325l-181 326l189 100l250 -426l-250 -426z" />
<glyph unicode="&#xbc;" d="M111 35l323 510l72 -43l-283 -537zM111 1210l176 101h98v-533h109v-123h-351v123h109v367l-80 -41zM535 123v119l190 413h149l-188 -411h88v135h133v-135h74v-121h-74v-123h-133v123h-239zM584 809l280 534l115 -67l-324 -508z" />
<glyph unicode="&#xbd;" d="M111 35l323 510l72 -43l-283 -537zM111 1210l176 101h98v-533h109v-123h-351v123h109v367l-80 -41zM559 0v178l229 201q32 26 42 45t10 45q0 46 -18.5 61t-55.5 15q-41 0 -57.5 -20t-16.5 -74h-133v41q0 73 53.5 123.5t153.5 50.5q104 0 155.5 -51.5t51.5 -145.5 q0 -49 -18.5 -86t-69.5 -80l-199 -170v-10h281v-123h-408zM584 809l280 534l115 -67l-324 -508z" />
<glyph unicode="&#xbe;" d="M109 35l323 510l72 -43l-283 -537zM111 821v39h133q0 -56 15.5 -74t57.5 -18q74 0 74 63v21q0 84 -80 84h-41v98h41q80 0 80 80v23q0 63 -74 63q-41 0 -57 -18.5t-16 -75.5h-133v41q0 73 53 123.5t153 50.5q104 0 155.5 -51.5t51.5 -145.5q0 -101 -61 -141 q61 -40 61 -141q0 -94 -51.5 -145.5t-155.5 -51.5q-100 0 -153 51t-53 125zM532 123v119l191 413h149l-188 -411h88v135h133v-135h74v-121h-74v-123h-133v123h-240zM582 809l280 534l115 -67l-324 -508z" />
<glyph unicode="&#xbf;" d="M133 0v31q0 158 73 255.5t220 123.5l4 92h225l11 -299h-123q-164 0 -164 -144v-79q0 -144 164 -144t164 144v65h245v-45q0 -187 -102 -288t-307 -101t-307.5 101t-102.5 288zM391 639v303h303v-303h-303z" />
<glyph unicode="&#xc0;" d="M123 0v184l256 1127h328l256 -1127v-184h-246v193l-33 155h-283l-32 -155v-193h-246zM358 1602v67h232l137 -194v-68h-170zM446 573h193l-96 467z" />
<glyph unicode="&#xc1;" d="M123 0v184l256 1127h328l256 -1127v-184h-246v193l-33 155h-283l-32 -155v-193h-246zM358 1407v68l138 194h231v-67l-199 -195h-170zM446 573h193l-96 467z" />
<glyph unicode="&#xc2;" d="M123 0v184l256 1127h328l256 -1127v-184h-246v193l-33 155h-283l-32 -155v-193h-246zM289 1407v68l178 194h149l179 -194v-68h-129l-123 104l-125 -104h-129zM446 573h193l-96 467z" />
<glyph unicode="&#xc3;" d="M123 0v184l256 1127h328l256 -1127v-184h-246v193l-33 155h-283l-32 -155v-193h-246zM217 1489q15 78 72 130t135 52q91 0 164 -63q29 -26 47.5 -35.5t42.5 -9.5q29 0 50.5 19.5t31.5 47.5l108 -33q-15 -79 -71.5 -130.5t-134.5 -51.5q-90 0 -164 64q-29 26 -47.5 35.5 t-42.5 9.5q-29 0 -50.5 -19.5t-31.5 -48.5zM446 573h193l-96 467z" />
<glyph unicode="&#xc4;" d="M123 0v184l256 1127h328l256 -1127v-184h-246v193l-33 155h-283l-32 -155v-193h-246zM248 1427v222h221v-222h-221zM446 573h193l-96 467zM616 1427v222h222v-222h-222z" />
<glyph unicode="&#xc5;" d="M123 0v184l256 1127h328l256 -1127v-184h-246v193l-33 155h-283l-32 -155v-193h-246zM350 1571q0 80 52 134t141 54t140.5 -54t51.5 -134t-54.5 -132.5t-137.5 -52.5q-84 0 -138.5 52.5t-54.5 132.5zM446 573h193l-96 467zM469 1573q0 -30 21 -51t53 -21q30 0 50.5 21 t20.5 51q0 32 -20.5 52t-50.5 20q-31 0 -52.5 -20t-21.5 -52z" />
<glyph unicode="&#xc6;" d="M82 0v184l256 1127h625v-226h-215v-317h143v-225h-143v-318h215v-225h-441v348h-162l-32 -155v-193h-246zM406 573h116v566z" />
<glyph unicode="&#xc7;" d="M133 369v573q0 187 102.5 288t307.5 101t307 -101t102 -288v-55h-245v76q0 143 -164 143t-164 -143v-615q0 -143 164 -143t164 143v76h245v-55q0 -158 -73.5 -255.5t-221.5 -123.5q35 -35 35 -99v-28q0 -139 -149 -139q-76 0 -113 34.5t-37 96.5h111q0 -27 39 -27 q37 0 37 35v24q0 31 -37 31h-66v64q-172 17 -258 117t-86 270z" />
<glyph unicode="&#xc8;" d="M174 0v1311h737v-226h-491v-317h389v-225h-389v-318h491v-225h-737zM358 1602v67h232l137 -194v-68h-170z" />
<glyph unicode="&#xc9;" d="M174 0v1311h737v-226h-491v-317h389v-225h-389v-318h491v-225h-737zM358 1407v68l138 194h231v-67l-199 -195h-170z" />
<glyph unicode="&#xca;" d="M174 0v1311h737v-226h-491v-317h389v-225h-389v-318h491v-225h-737zM289 1407v68l178 194h149l179 -194v-68h-129l-123 104l-125 -104h-129z" />
<glyph unicode="&#xcb;" d="M174 0v1311h737v-226h-491v-317h389v-225h-389v-318h491v-225h-737zM248 1427v222h221v-222h-221zM616 1427v222h222v-222h-222z" />
<glyph unicode="&#xcc;" d="M195 0v225h225v860h-225v226h696v-226h-225v-860h225v-225h-696zM358 1602v67h232l137 -194v-68h-170z" />
<glyph unicode="&#xcd;" d="M195 0v225h225v860h-225v226h696v-226h-225v-860h225v-225h-696zM358 1407v68l138 194h231v-67l-199 -195h-170z" />
<glyph unicode="&#xce;" d="M195 0v225h225v860h-225v226h696v-226h-225v-860h225v-225h-696zM289 1407v68l178 194h149l179 -194v-68h-129l-123 104l-125 -104h-129z" />
<glyph unicode="&#xcf;" d="M195 0v225h225v860h-225v226h696v-226h-225v-860h225v-225h-696zM248 1427v222h221v-222h-221zM616 1427v222h222v-222h-222z" />
<glyph unicode="&#xd0;" d="M51 553v225h82v533h410q205 0 307 -101t102 -288v-533q0 -187 -102 -288t-307 -101h-410v553h-82zM379 225h164q164 0 164 144v573q0 143 -164 143h-164v-307h164v-225h-164v-328z" />
<glyph unicode="&#xd1;" d="M133 0v1311h184l390 -783v783h245v-1311h-184l-389 782v-782h-246zM217 1489q15 78 72 130t135 52q91 0 164 -63q29 -26 47.5 -35.5t42.5 -9.5q29 0 50.5 19.5t31.5 47.5l108 -33q-15 -79 -71.5 -130.5t-134.5 -51.5q-90 0 -164 64q-29 26 -47.5 35.5t-42.5 9.5 q-29 0 -50.5 -19.5t-31.5 -48.5z" />
<glyph unicode="&#xd2;" d="M133 369v573q0 187 102.5 288t307.5 101t307 -101t102 -288v-573q0 -187 -102 -288t-307 -101t-307.5 101t-102.5 288zM358 1602v67h232l137 -194v-68h-170zM379 348q0 -143 164 -143t164 143v615q0 143 -164 143t-164 -143v-615z" />
<glyph unicode="&#xd3;" d="M133 369v573q0 187 102.5 288t307.5 101t307 -101t102 -288v-573q0 -187 -102 -288t-307 -101t-307.5 101t-102.5 288zM358 1407v68l138 194h231v-67l-199 -195h-170zM379 348q0 -143 164 -143t164 143v615q0 143 -164 143t-164 -143v-615z" />
<glyph unicode="&#xd4;" d="M133 369v573q0 187 102.5 288t307.5 101t307 -101t102 -288v-573q0 -187 -102 -288t-307 -101t-307.5 101t-102.5 288zM289 1407v68l178 194h149l179 -194v-68h-129l-123 104l-125 -104h-129zM379 348q0 -143 164 -143t164 143v615q0 143 -164 143t-164 -143v-615z" />
<glyph unicode="&#xd5;" d="M133 369v573q0 187 102.5 288t307.5 101t307 -101t102 -288v-573q0 -187 -102 -288t-307 -101t-307.5 101t-102.5 288zM217 1489q15 78 72 130t135 52q91 0 164 -63q29 -26 47.5 -35.5t42.5 -9.5q29 0 50.5 19.5t31.5 47.5l108 -33q-15 -79 -71.5 -130.5t-134.5 -51.5 q-90 0 -164 64q-29 26 -47.5 35.5t-42.5 9.5q-29 0 -50.5 -19.5t-31.5 -48.5zM379 348q0 -143 164 -143t164 143v615q0 143 -164 143t-164 -143v-615z" />
<glyph unicode="&#xd6;" d="M133 369v573q0 187 102.5 288t307.5 101t307 -101t102 -288v-573q0 -187 -102 -288t-307 -101t-307.5 101t-102.5 288zM248 1427v222h221v-222h-221zM379 348q0 -143 164 -143t164 143v615q0 143 -164 143t-164 -143v-615zM616 1427v222h222v-222h-222z" />
<glyph unicode="&#xd7;" d="M160 346l254 254l-254 254l129 129l254 -254l254 254l129 -129l-254 -254l254 -254l-129 -129l-254 254l-254 -254z" />
<glyph unicode="&#xd8;" d="M133 369v573q0 187 102.5 288t307.5 101q58 0 102 -8l12 49h164l-26 -100q157 -93 157 -330v-573q0 -187 -102 -288t-307 -101q-59 0 -103 8l-12 -49h-164l27 100q-158 94 -158 330zM379 356l205 748q-12 2 -41 2q-164 0 -164 -143v-607zM502 207q12 -2 41 -2 q164 0 164 143v606z" />
<glyph unicode="&#xd9;" d="M133 369v942h246v-963q0 -143 164 -143t164 143v963h245v-942q0 -187 -102 -288t-307 -101t-307.5 101t-102.5 288zM358 1602v67h232l137 -194v-68h-170z" />
<glyph unicode="&#xda;" d="M133 369v942h246v-963q0 -143 164 -143t164 143v963h245v-942q0 -187 -102 -288t-307 -101t-307.5 101t-102.5 288zM358 1407v68l138 194h231v-67l-199 -195h-170z" />
<glyph unicode="&#xdb;" d="M133 369v942h246v-963q0 -143 164 -143t164 143v963h245v-942q0 -187 -102 -288t-307 -101t-307.5 101t-102.5 288zM289 1407v68l178 194h149l179 -194v-68h-129l-123 104l-125 -104h-129z" />
<glyph unicode="&#xdc;" d="M133 369v942h246v-963q0 -143 164 -143t164 143v963h245v-942q0 -187 -102 -288t-307 -101t-307.5 101t-102.5 288zM248 1427v222h221v-222h-221zM616 1427v222h222v-222h-222z" />
<glyph unicode="&#xdd;" d="M133 1044v267h246v-224l164 -350l164 350v224h245v-267l-286 -555v-489h-246v489zM358 1407v68l138 194h231v-67l-199 -195h-170z" />
<glyph unicode="&#xde;" d="M133 0v1311h246v-262h164q205 0 307 -101.5t102 -288.5t-102 -288t-307 -101h-164v-270h-246zM379 496h164q164 0 164 143v41q0 143 -164 143h-164v-327z" />
<glyph unicode="&#xdf;" d="M143 0v942q0 185 96.5 287t280.5 102q187 0 284 -106t97 -293q0 -156 -82 -244q133 -87 133 -299q0 -198 -99.5 -303.5t-285.5 -105.5q-60 0 -100 8l22 221q36 -4 74 -4q152 0 152 184q0 103 -45.5 143.5t-137.5 40.5v205q66 0 99 35.5t33 118.5q0 90 -38.5 132 t-105.5 42q-57 0 -94 -35t-37 -108v-963h-246z" />
<glyph unicode="&#xe0;" d="M133 256v6q0 142 99.5 211.5t277.5 69.5h186v69q0 72 -38 109t-109 37q-66 0 -104.5 -24.5t-47.5 -67.5h-221q0 52 23.5 103t69 95t124.5 71.5t180 27.5q173 0 271 -100.5t98 -270.5v-592h-205l-16 80q-108 -100 -266 -100q-150 0 -236 74t-86 202zM369 272 q0 -43 30 -65.5t82 -22.5q79 0 147 38t68 85v64h-188q-139 0 -139 -90v-9zM379 1264v67h231l138 -194v-68h-170z" />
<glyph unicode="&#xe1;" d="M133 256v6q0 142 99.5 211.5t277.5 69.5h186v69q0 72 -38 109t-109 37q-66 0 -104.5 -24.5t-47.5 -67.5h-221q0 52 23.5 103t69 95t124.5 71.5t180 27.5q173 0 271 -100.5t98 -270.5v-592h-205l-16 80q-108 -100 -266 -100q-150 0 -236 74t-86 202zM369 272 q0 -43 30 -65.5t82 -22.5q79 0 147 38t68 85v64h-188q-139 0 -139 -90v-9zM379 1069v68l137 194h232v-67l-199 -195h-170z" />
<glyph unicode="&#xe2;" d="M133 256v6q0 142 99.5 211.5t277.5 69.5h186v69q0 72 -38 109t-109 37q-66 0 -104.5 -24.5t-47.5 -67.5h-221q0 52 23.5 103t69 95t124.5 71.5t180 27.5q173 0 271 -100.5t98 -270.5v-592h-205l-16 80q-108 -100 -266 -100q-150 0 -236 74t-86 202zM309 1069v68l178 194 h150l178 -194v-68h-129l-123 105l-125 -105h-129zM369 272q0 -43 30 -65.5t82 -22.5q79 0 147 38t68 85v64h-188q-139 0 -139 -90v-9z" />
<glyph unicode="&#xe3;" d="M133 256v6q0 142 99.5 211.5t277.5 69.5h186v69q0 72 -38 109t-109 37q-66 0 -104.5 -24.5t-47.5 -67.5h-221q0 52 23.5 103t69 95t124.5 71.5t180 27.5q173 0 271 -100.5t98 -270.5v-592h-205l-16 80q-108 -100 -266 -100q-150 0 -236 74t-86 202zM238 1151 q15 79 71.5 130.5t134.5 51.5q91 0 164 -63q29 -26 47.5 -35.5t42.5 -9.5q29 0 50.5 19.5t31.5 47.5l109 -32q-15 -79 -72 -131t-135 -52q-90 0 -164 64q-29 26 -47.5 35.5t-42.5 9.5q-29 0 -50.5 -19.5t-31.5 -48.5zM369 272q0 -43 30 -65.5t82 -22.5q79 0 147 38t68 85v64 h-188q-139 0 -139 -90v-9z" />
<glyph unicode="&#xe4;" d="M133 256v6q0 142 99.5 211.5t277.5 69.5h186v69q0 72 -38 109t-109 37q-66 0 -104.5 -24.5t-47.5 -67.5h-221q0 52 23.5 103t69 95t124.5 71.5t180 27.5q173 0 271 -100.5t98 -270.5v-592h-205l-16 80q-108 -100 -266 -100q-150 0 -236 74t-86 202zM268 1090v221h221 v-221h-221zM369 272q0 -43 30 -65.5t82 -22.5q79 0 147 38t68 85v64h-188q-139 0 -139 -90v-9zM637 1090v221h221v-221h-221z" />
<glyph unicode="&#xe5;" d="M133 256v6q0 142 99.5 211.5t277.5 69.5h186v69q0 72 -38 109t-109 37q-66 0 -104.5 -24.5t-47.5 -67.5h-221q0 52 23.5 103t69 95t124.5 71.5t180 27.5q173 0 271 -100.5t98 -270.5v-592h-205l-16 80q-108 -100 -266 -100q-150 0 -236 74t-86 202zM369 272 q0 -43 30 -65.5t82 -22.5q79 0 147 38t68 85v64h-188q-139 0 -139 -90v-9zM371 1233q0 80 51.5 134t140.5 54t141 -54t52 -134q0 -79 -55 -131.5t-138 -52.5q-84 0 -138 52t-54 132zM489 1235q0 -30 21 -51t53 -21q30 0 51 21t21 51q0 32 -21 52t-51 20q-31 0 -52.5 -20 t-21.5 -52z" />
<glyph unicode="&#xe6;" horiz-adv-x="1597" d="M133 256v6q0 144 101 219.5t276 73.5h135v18q0 74 19 142q-40 43 -115 43q-66 0 -104.5 -24.5t-47.5 -67.5h-221q0 52 23.5 103t69 95t124.5 71.5t180 27.5q135 0 226 -62q95 62 256 62q204 0 306.5 -99.5t102.5 -279.5v-174h-573v-72q0 -143 164 -143q74 0 119 27t45 69 h245q0 -55 -25.5 -109t-73.5 -100t-129 -74t-181 -28q-215 0 -320 114q-107 -114 -280 -114q-150 0 -236 74t-86 202zM369 276q0 -44 30 -68t82 -24q50 0 98.5 16.5t79.5 43.5q-14 52 -14 125v41h-137q-66 0 -102.5 -30t-36.5 -77v-27zM891 555h328v49q0 144 -164 144 t-164 -144v-49z" />
<glyph unicode="&#xe7;" d="M133 369v204q0 187 102.5 288.5t307.5 101.5q201 0 305 -95.5t104 -249.5h-245q0 58 -44 88.5t-120 30.5q-164 0 -164 -143v-246q0 -143 164 -143q76 0 120 30.5t44 88.5h245q0 -130 -74.5 -219.5t-220.5 -114.5q35 -35 35 -99v-28q0 -139 -149 -139q-76 0 -113 34.5 t-37 96.5h111q0 -27 39 -27q37 0 37 35v24q0 31 -37 31h-66v64q-172 17 -258 117t-86 270z" />
<glyph unicode="&#xe8;" d="M133 369v204q0 187 102.5 288.5t307.5 101.5q204 0 306.5 -99.5t102.5 -279.5v-154h-573v-92q0 -143 164 -143q74 0 119 27t45 69h245q0 -55 -25.5 -109t-73.5 -100t-129 -74t-181 -28q-205 0 -307.5 101t-102.5 288zM358 1264v67h232l137 -194v-68h-170zM379 575h328v29 q0 144 -164 144t-164 -144v-29z" />
<glyph unicode="&#xe9;" d="M133 369v204q0 187 102.5 288.5t307.5 101.5q204 0 306.5 -99.5t102.5 -279.5v-154h-573v-92q0 -143 164 -143q74 0 119 27t45 69h245q0 -55 -25.5 -109t-73.5 -100t-129 -74t-181 -28q-205 0 -307.5 101t-102.5 288zM358 1069v68l138 194h231v-67l-199 -195h-170z M379 575h328v29q0 144 -164 144t-164 -144v-29z" />
<glyph unicode="&#xea;" d="M133 369v204q0 187 102.5 288.5t307.5 101.5q204 0 306.5 -99.5t102.5 -279.5v-154h-573v-92q0 -143 164 -143q74 0 119 27t45 69h245q0 -55 -25.5 -109t-73.5 -100t-129 -74t-181 -28q-205 0 -307.5 101t-102.5 288zM289 1069v68l178 194h149l179 -194v-68h-129 l-123 105l-125 -105h-129zM379 575h328v29q0 144 -164 144t-164 -144v-29z" />
<glyph unicode="&#xeb;" d="M133 369v204q0 187 102.5 288.5t307.5 101.5q204 0 306.5 -99.5t102.5 -279.5v-154h-573v-92q0 -143 164 -143q74 0 119 27t45 69h245q0 -55 -25.5 -109t-73.5 -100t-129 -74t-181 -28q-205 0 -307.5 101t-102.5 288zM248 1090v221h221v-221h-221zM379 575h328v29 q0 144 -164 144t-164 -144v-29zM616 1090v221h222v-221h-222z" />
<glyph unicode="&#xec;" horiz-adv-x="593" d="M113 1264v67h231l137 -194v-68h-170zM174 0v942h246v-942h-246z" />
<glyph unicode="&#xed;" horiz-adv-x="593" d="M113 1069v68l137 194h231v-67l-198 -195h-170zM174 0v942h246v-942h-246z" />
<glyph unicode="&#xee;" horiz-adv-x="593" d="M43 1069v68l178 194h150l178 -194v-68h-129l-123 105l-125 -105h-129zM174 0v942h246v-942h-246z" />
<glyph unicode="&#xef;" horiz-adv-x="593" d="M2 1090v221h221v-221h-221zM174 0v942h246v-942h-246zM371 1090v221h221v-221h-221z" />
<glyph unicode="&#xf0;" d="M133 369v153q0 174 103.5 266.5t265.5 92.5q90 0 172 -50q-34 102 -96 170l-179 -83l-75 169l86 41q-54 30 -160 70l63 193q195 -53 332 -154l170 80l76 -170l-105 -49q166 -208 166 -545v-184q0 -187 -102 -288t-307 -101t-307.5 101t-102.5 288zM379 348 q0 -143 164 -143t164 143v189v16q-19 50 -64.5 76t-93.5 26q-72 0 -121 -39.5t-49 -113.5v-154z" />
<glyph unicode="&#xf1;" d="M143 0v942h205l17 -86q104 107 262 107q144 0 229.5 -85.5t85.5 -252.5v-625h-246v604q0 133 -125 133q-77 0 -129.5 -46t-52.5 -159v-532h-246zM223 1151q15 78 72 130t135 52q91 0 164 -63q29 -26 47.5 -35.5t42.5 -9.5q29 0 50.5 19.5t31.5 47.5l108 -32 q-15 -79 -71.5 -131t-134.5 -52q-90 0 -164 64q-29 26 -47.5 35.5t-42.5 9.5q-29 0 -50.5 -19.5t-31.5 -48.5z" />
<glyph unicode="&#xf2;" d="M133 369v204q0 187 102.5 288.5t307.5 101.5t307 -101.5t102 -288.5v-204q0 -187 -102 -288t-307 -101t-307.5 101t-102.5 288zM352 1264v67h232l137 -194v-68h-170zM379 348q0 -143 164 -143t164 143v246q0 143 -164 143t-164 -143v-246z" />
<glyph unicode="&#xf3;" d="M133 369v204q0 187 102.5 288.5t307.5 101.5t307 -101.5t102 -288.5v-204q0 -187 -102 -288t-307 -101t-307.5 101t-102.5 288zM365 1069v68l137 194h231v-67l-198 -195h-170zM379 348q0 -143 164 -143t164 143v246q0 143 -164 143t-164 -143v-246z" />
<glyph unicode="&#xf4;" d="M133 369v204q0 187 102.5 288.5t307.5 101.5t307 -101.5t102 -288.5v-204q0 -187 -102 -288t-307 -101t-307.5 101t-102.5 288zM293 1069v68l178 194h150l178 -194v-68h-129l-123 105l-125 -105h-129zM379 348q0 -143 164 -143t164 143v246q0 143 -164 143t-164 -143 v-246z" />
<glyph unicode="&#xf5;" d="M133 369v204q0 187 102.5 288.5t307.5 101.5t307 -101.5t102 -288.5v-204q0 -187 -102 -288t-307 -101t-307.5 101t-102.5 288zM217 1151q15 78 72 130t135 52q91 0 164 -63q29 -26 47.5 -35.5t42.5 -9.5q29 0 50.5 19.5t31.5 47.5l108 -32q-15 -79 -71.5 -131 t-134.5 -52q-90 0 -164 64q-29 26 -47.5 35.5t-42.5 9.5q-29 0 -50.5 -19.5t-31.5 -48.5zM379 348q0 -143 164 -143t164 143v246q0 143 -164 143t-164 -143v-246z" />
<glyph unicode="&#xf6;" d="M133 369v204q0 187 102.5 288.5t307.5 101.5t307 -101.5t102 -288.5v-204q0 -187 -102 -288t-307 -101t-307.5 101t-102.5 288zM248 1090v221h221v-221h-221zM379 348q0 -143 164 -143t164 143v246q0 143 -164 143t-164 -143v-246zM616 1090v221h222v-221h-222z" />
<glyph unicode="&#xf7;" d="M154 510v180h778v-180h-778zM449 188v189h188v-189h-188zM449 823v189h188v-189h-188z" />
<glyph unicode="&#xf8;" d="M133 369v204q0 187 102.5 288.5t307.5 101.5q43 0 63 -2l12 43h142l-21 -74q213 -82 213 -357v-204q0 -187 -102 -288t-307 -101q-44 0 -64 2l-12 -43h-141l20 73q-213 82 -213 357zM379 348q0 -59 33 -100l133 489h-2q-164 0 -164 -143v-246zM541 205h2q164 0 164 143 v246q0 61 -31 100z" />
<glyph unicode="&#xf9;" d="M143 317v625h246v-604q0 -133 125 -133q77 0 129.5 46t52.5 159v532h246v-942h-205l-16 86q-103 -106 -262 -106q-144 0 -230 85t-86 252zM358 1264v67h232l137 -194v-68h-170z" />
<glyph unicode="&#xfa;" d="M143 317v625h246v-604q0 -133 125 -133q77 0 129.5 46t52.5 159v532h246v-942h-205l-16 86q-103 -106 -262 -106q-144 0 -230 85t-86 252zM358 1069v68l138 194h231v-67l-199 -195h-170z" />
<glyph unicode="&#xfb;" d="M143 317v625h246v-604q0 -133 125 -133q77 0 129.5 46t52.5 159v532h246v-942h-205l-16 86q-103 -106 -262 -106q-144 0 -230 85t-86 252zM289 1069v68l178 194h149l179 -194v-68h-129l-123 105l-125 -105h-129z" />
<glyph unicode="&#xfc;" d="M143 317v625h246v-604q0 -133 125 -133q77 0 129.5 46t52.5 159v532h246v-942h-205l-16 86q-103 -106 -262 -106q-144 0 -230 85t-86 252zM248 1090v221h221v-221h-221zM616 1090v221h222v-221h-222z" />
<glyph unicode="&#xfd;" d="M113 758v184h245v-180l185 -481l184 481v180h246v-184l-424 -1004h-219l98 250zM358 1069v68l138 194h231v-67l-199 -195h-170z" />
<glyph unicode="&#xfe;" d="M143 -246v1557h246v-428q93 80 219 80q150 0 247 -92.5t97 -266.5v-266q0 -174 -96 -266t-246 -92q-130 0 -221 79v-305h-246zM389 369q0 -82 50 -123t122 -41q61 0 103.5 39.5t42.5 113.5v226q0 74 -42.5 113.5t-103.5 39.5q-72 0 -122 -41t-50 -123v-204z" />
<glyph unicode="&#xff;" d="M113 758v184h245v-180l185 -481l184 481v180h246v-184l-424 -1004h-219l98 250zM248 1090v221h221v-221h-221zM616 1090v221h222v-221h-222z" />
<glyph unicode="&#x152;" d="M133 389v533q0 188 96 288.5t293 100.5h441v-226h-215v-317h143v-225h-143v-318h215v-225h-441q-197 0 -293 100.5t-96 288.5zM379 369q0 -144 143 -144v860q-70 0 -106.5 -34t-36.5 -109v-573z" />
<glyph unicode="&#x153;" horiz-adv-x="1587" d="M133 369v204q0 187 102.5 288.5t307.5 101.5q153 0 252 -58q99 58 249 58q204 0 307 -100t103 -279v-174h-573v-72q0 -143 163 -143q74 0 119 27t45 69h246q0 -55 -25.5 -109t-74 -100t-129.5 -74t-181 -28q-152 0 -249 57q-102 -57 -252 -57q-205 0 -307.5 101 t-102.5 288zM379 348q0 -143 164 -143q67 0 108 24q-16 69 -16 140v204q0 71 16 140q-41 24 -108 24q-164 0 -164 -143v-246zM881 555h327v49q0 144 -164 144q-163 0 -163 -144v-49z" />
<glyph unicode="&#x178;" d="M133 1044v267h246v-224l164 -350l164 350v224h245v-267l-286 -555v-489h-246v489zM248 1427v222h221v-222h-221zM616 1427v222h222v-222h-222z" />
<glyph unicode="&#x2c6;" d="M293 1069v68l178 194h150l178 -194v-68h-129l-123 105l-125 -105h-129z" />
<glyph unicode="&#x2dc;" d="M217 1151q15 78 72 130t135 52q91 0 164 -63q29 -26 47.5 -35.5t42.5 -9.5q29 0 50.5 19.5t31.5 47.5l108 -32q-15 -79 -71.5 -131t-134.5 -52q-90 0 -164 64q-29 26 -47.5 35.5t-42.5 9.5q-29 0 -50.5 -19.5t-31.5 -48.5z" />
<glyph unicode="&#x2000;" horiz-adv-x="879" />
<glyph unicode="&#x2001;" horiz-adv-x="1759" />
<glyph unicode="&#x2002;" horiz-adv-x="879" />
<glyph unicode="&#x2003;" horiz-adv-x="1759" />
<glyph unicode="&#x2004;" horiz-adv-x="586" />
<glyph unicode="&#x2005;" horiz-adv-x="439" />
<glyph unicode="&#x2006;" horiz-adv-x="293" />
<glyph unicode="&#x2007;" horiz-adv-x="293" />
<glyph unicode="&#x2008;" horiz-adv-x="219" />
<glyph unicode="&#x2009;" horiz-adv-x="351" />
<glyph unicode="&#x200a;" horiz-adv-x="97" />
<glyph unicode="&#x2010;" horiz-adv-x="778" d="M143 459v200h492v-200h-492z" />
<glyph unicode="&#x2011;" horiz-adv-x="778" d="M143 459v200h492v-200h-492z" />
<glyph unicode="&#x2012;" horiz-adv-x="778" d="M143 459v200h492v-200h-492z" />
<glyph unicode="&#x2013;" d="M184 459v200h717v-200h-717z" />
<glyph unicode="&#x2014;" horiz-adv-x="2170" d="M184 471v176h1803v-176h-1803z" />
<glyph unicode="&#x2018;" horiz-adv-x="651" d="M174 803v219l143 371h142l-82 -287h100v-303h-303z" />
<glyph unicode="&#x2019;" horiz-adv-x="651" d="M174 1008v303h303v-219l-143 -371h-141l81 287h-100z" />
<glyph unicode="&#x201a;" horiz-adv-x="651" d="M174 0v303h303v-219l-143 -371h-141l81 287h-100z" />
<glyph unicode="&#x201c;" d="M186 803v219l144 371h141l-82 -287h100v-303h-303zM596 803v219l143 371h142l-82 -287h100v-303h-303z" />
<glyph unicode="&#x201d;" d="M186 1008v303h303v-219l-143 -371h-141l82 287h-101zM596 1008v303h303v-219l-143 -371h-142l82 287h-100z" />
<glyph unicode="&#x201e;" d="M186 0v303h303v-219l-143 -371h-141l82 287h-101zM596 0v303h303v-219l-143 -371h-142l82 287h-100z" />
<glyph unicode="&#x2022;" d="M317 582q0 92 67 158.5t159 66.5q93 0 159 -66t66 -159q0 -94 -65.5 -160t-159.5 -66q-93 0 -159.5 66.5t-66.5 159.5z" />
<glyph unicode="&#x2026;" d="M78 0v252h252v-252h-252zM416 0v252h252v-252h-252zM754 0v252h252v-252h-252z" />
<glyph unicode="&#x202f;" horiz-adv-x="351" />
<glyph unicode="&#x2039;" horiz-adv-x="724" d="M123 520l274 469l185 -106l-201 -363l201 -362l-185 -107z" />
<glyph unicode="&#x203a;" horiz-adv-x="724" d="M143 158l201 362l-201 363l185 106l274 -469l-274 -469z" />
<glyph unicode="&#x205f;" horiz-adv-x="439" />
<glyph unicode="&#x20ac;" d="M61 467v143h72v90h-72v144h72v98q0 187 102.5 288t307.5 101t307 -101t102 -288v-55h-245v76q0 143 -164 143t-164 -143v-119h252l-31 -144h-221v-90h205l-31 -143h-174v-119q0 -143 164 -143t164 143v76h245v-55q0 -187 -102 -288t-307 -101t-307.5 101t-102.5 288v98 h-72z" />
<glyph unicode="&#x2122;" d="M88 1198v113h410v-113h-144v-461h-123v461h-143zM549 737v574h90l115 -244l116 244h88v-574h-122v297l-52 -100h-61l-51 100v-297h-123z" />
<glyph unicode="&#x25fc;" horiz-adv-x="942" d="M0 0v942h942v-942h-942z" />
</font>
</defs>
</svg>
