<svg xmlns="http://www.w3.org/2000/svg" width="17" height="17" viewBox="0 0 68 68" version="1.1">
  <path d="M34,0.8 C15.7,0.8 0.8,15.7 0.8,34 C0.8,52.3 15.7,67.2 34,67.2 C52.3,67.2 67.2,52.3 67.2,34 C67.2,15.7 52.3,0.8 34,0.8 Z M34,13.7 C32,13.7 30.7,15.1 30.7,16.9 C30.7,18.7 32,20.2 33.9,20.2 L34,20.2 C36,20.2 37.3,18.7 37.3,16.9 C37.2,15.2 36,13.7 34,13.7 Z M31.5,25.4 L36.6,25.4 L36.6,53.3 L31.5,53.3 L31.5,25.4 Z M34,62.2 C18.4,62.2 5.8,49.5 5.8,34 C5.8,18.5 18.4,5.8 34,5.8 C49.6,5.8 62.2,18.4 62.2,34 C62.2,49.6 49.6,62.2 34,62.2 Z" fill="#fff"></path>
</svg>