<svg width="51px" height="58px" viewBox="5 1 51 58" version="1.1" xmlns="http://www.w3.org/2000/svg" xmlns:xlink="http://www.w3.org/1999/xlink">
    <path d="M54.032,48.061 C48.675,39.322 39.952,22.701 38.808,20.515 L38.648,2.496 C38.643,1.881 38.143,1.386 37.528,1.386 L22.348,1.386 C21.73,1.386 21.228,1.887 21.228,2.506 L21.228,20.756 L6.064,48.354 C6.045,48.387 6.028,48.422 6.013,48.458 C5.955,48.597 4.608,51.873 6.099,54.562 C6.992,56.172 8.65,57.182 11.025,57.566 C12.821,57.856 17.593,58.004 25.21,58.004 L25.21,58.004 C36.023,58.004 49.023,57.707 49.222,57.701 C49.399,57.684 53.567,57.304 55.014,54.446 C55.895,52.706 55.563,50.559 54.032,48.061 L54.032,48.061 Z M53.019,53.43 C52.29,54.876 49.894,55.393 49.104,55.464 C48.974,55.468 35.999,55.764 25.211,55.764 C15.874,55.764 12.538,55.543 11.384,55.356 C9.725,55.088 8.608,54.459 8.063,53.486 C7.168,51.884 7.934,49.705 8.061,49.371 L23.33,21.582 C23.421,21.417 23.469,21.231 23.469,21.043 L23.469,18.423 L29.458,18.423 L29.458,16.183 L23.469,16.183 L23.469,14.378 L27.04,14.378 L27.04,12.138 L23.469,12.138 L23.469,10.285 L29.458,10.285 L29.458,8.045 L23.469,8.045 L23.469,3.625 L36.418,3.625 L36.57,20.804 C36.572,20.981 36.615,21.155 36.697,21.312 C36.793,21.496 46.369,39.845 52.123,49.232 C53.219,51.019 53.521,52.432 53.019,53.43 Z M11.691,48.025 C11.691,48.025 9.545,52.318 13.402,52.753 C17.156,53.177 46.253,52.753 46.253,52.753 C46.253,52.753 49.986,52.566 48.556,49.238 C46.56,44.598 38.01,28.947 38.01,28.947 L22.238,28.947 L11.691,48.025 Z" fill="#ffffff" fill-rule="evenodd"></path>
</svg>