<svg xmlns="http://www.w3.org/2000/svg" width="17" height="17" viewBox="0 0 24 24" version="1.1">
  <g stroke="none" fill="#ffffff">
    <path d="M12.4559031,0.265555471 C12.2786706,-0.0885184903 11.7000583,-0.0885184903 11.5228257,0.265555471 L0.0548345884,23.2438066 C-0.0254413493,23.4056989 -0.0171009921,23.5978806 0.0767280259,23.7514171 C0.173684678,23.9059981 0.341534366,24 0.521894589,24 L23.4787277,24 C23.76647,24 24,23.7660396 24,23.477767 C24,23.3440754 23.9499579,23.2208284 23.8665543,23.1289154 L12.4559031,0.265555471 Z M12,4.17391304 L20.8695652,21.9130435 L3.13043478,21.9130435 L12,4.17391304 Z M10.9565217,16.5325213 L13.0434783,16.5325213 L13.0434783,8.54782569 L10.9565217,8.54782569 L10.9565217,16.5325213 Z"></path>
    <ellipse cx="12" cy="19.5" rx="1.5" ry="1.5"></ellipse>
  </g>
</svg>