<?xml version="1.0" encoding="UTF-8" standalone="no"?>
<svg class="svg-google-login" width="15" height="15" role="img" version="1.1" viewBox="0 0 33 33" xmlns="http://www.w3.org/2000/svg" xmlns:xlink="http://www.w3.org/1999/xlink">
  <g stroke="none" stroke-width="1" fill-rule="evenodd" fill="none">
     <path d="M32.34,16.875 C32.34,15.705 32.235,14.58 32.0399999,13.5 L16.5,13.5 L16.5,19.8825 L25.3800001,19.8825 C24.9975,21.945 23.835,23.6925 22.0875001,24.8624999 L22.0875001,29.0025001 L27.4199999,29.0025001 C30.54,26.13 32.34,21.8999999 32.34,16.875 L32.34,16.875 L32.34,16.875 Z" fill="#4285F4"></path>
    <path d="M16.5,33 C20.955,33 24.69,31.5225 27.4199999,29.0025001 L22.0875001,24.8624999 C20.61,25.8524999 18.72,26.4374999 16.5,26.4374999 C12.2025,26.4374999 8.565,23.535 7.2675,19.635 L1.755,19.635 L1.755,23.91 C4.47,29.3025 10.05,33 16.5,33 L16.5,33 L16.5,33 Z" fill="#34A853"></path>
    <path d="M7.2675,19.635 C6.9375,18.645 6.75,17.5875 6.75,16.5 C6.75,15.4125 6.9375,14.355 7.2675,13.365 L7.2675,9.09 L1.755,9.09 C0.6375,11.3175 0,13.8375 0,16.5 C0,19.1625 0.6375,21.6825 1.755,23.91 L7.2675,19.635 L7.2675,19.635 L7.2675,19.635 Z" fill="#FBBC05"></path>
    <path d="M16.5,6.56249999 C18.9224999,6.56249999 21.0975001,7.39499999 22.8074999,9.03000001 L27.54,4.2975 C24.6825,1.635 20.9475,0 16.5,0 C10.05,0 4.47,3.6975 1.755,9.09 L7.2675,13.365 C8.565,9.465 12.2025,6.56249999 16.5,6.56249999 L16.5,6.56249999 L16.5,6.56249999 Z" fill="#EA4335"></path>
    <path d="M0,0 L33,0 L33,33 L0,33 L0,0 L0,0 Z"></path>
  </g>
</svg>