<?xml version="1.0" encoding="UTF-8" standalone="no"?>
<svg class="svg-google" width="15" height="15" role="img" version="1.1" viewBox="0 0 33 33" xmlns="http://www.w3.org/2000/svg" xmlns:xlink="http://www.w3.org/1999/xlink">
  <g stroke="none" stroke-width="1" fill-rule="evenodd" fill="#ffffff">
    <path d="M16.7347561,19.6141115 L16.7347561,15.1058362 L31.9268293,15.1058362 C32.0753484,15.8915505 32.1520035,16.820993 32.1520035,17.8270906 C32.1520035,21.2094948 31.2273519,25.3919861 28.2473868,28.3719512 C25.3488676,31.3902439 21.6454704,33 16.739547,33 C7.64634146,33 0,25.5932056 0,16.5 C0,7.40679443 7.64634146,0 16.739547,0 C21.7700348,0 25.3536585,1.9738676 28.0461672,4.54660279 L24.8649826,7.72778746 C22.9342334,5.91681185 20.3183798,4.50827526 16.7347561,4.50827526 C10.0945122,4.50827526 4.9011324,9.8597561 4.9011324,16.5 C4.9011324,23.1402439 10.0945122,28.4917247 16.7347561,28.4917247 C21.0418118,28.4917247 23.4947735,26.7621951 25.0662021,25.1907666 C26.3405923,23.9163763 27.179007,22.0958188 27.5095819,19.6093206 L16.7347561,19.6141115 L16.7347561,19.6141115 Z"></path>
  </g>
</svg>